<svg version="1.1" xmlns="http://www.w3.org/2000/svg" xmlns:xlink="http://www.w3.org/1999/xlink" width="1389.88623046875" height="524"><defs/><g><g transform="translate(10,-30) scale(1,1)"><rect fill="#C0C0C0" stroke="none" x="17" y="183" width="210.45166015625" height="44" opacity="0.2"/></g><g transform="translate(10,-30) scale(1,1)"><rect fill="#ffffff" stroke="none" x="10" y="176" width="210.45166015625" height="44"/></g><g transform="translate(10,-30) scale(1,1)"><path fill="none" stroke="#000000" d="M 10 176 L 220.45166015625 176 L 220.45166015625 220 L 10 220 L 10 176 Z Z" stroke-miterlimit="10"/></g><g transform="translate(10,-30) scale(1,1)"><rect fill="#ffffff" stroke="none" x="0" y="183" width="20" height="10"/></g><g transform="translate(10,-30) scale(1,1)"><path fill="none" stroke="#000000" d="M 0 183 L 20 183 L 20 193 L 0 193 L 0 183 Z Z" stroke-miterlimit="10"/></g><g transform="translate(10,-30) scale(1,1)"><rect fill="#ffffff" stroke="none" x="0" y="203" width="20" height="10"/></g><g transform="translate(10,-30) scale(1,1)"><path fill="none" stroke="#000000" d="M 0 203 L 20 203 L 20 213 L 0 213 L 0 203 Z Z" stroke-miterlimit="10"/></g><g transform="translate(10,-30) scale(1,1)"><g><path fill="none" stroke="none"/><text fill="#000000" stroke="none" font-family="Arial" font-size="13px" font-style="normal" font-weight="normal" text-decoration="none" x="105.772216796875" y="193.5">«jar»</text></g></g><g transform="translate(10,-30) scale(1,1)"><g><path fill="none" stroke="none"/><text fill="#000000" stroke="none" font-family="Arial" font-size="13px" font-style="normal" font-weight="bold" text-decoration="none" x="27.753173828125" y="208.5">tweet-scraper V1.0-SNAPSHOT</text></g></g><g transform="translate(10,-30) scale(1,1)"><rect fill="#C0C0C0" stroke="none" x="537" y="383" width="208.29345703125" height="44" opacity="0.2"/></g><g transform="translate(10,-30) scale(1,1)"><rect fill="#ffffff" stroke="none" x="530" y="376" width="208.29345703125" height="44"/></g><g transform="translate(10,-30) scale(1,1)"><path fill="none" stroke="#000000" d="M 530 376 L 738.29345703125 376 L 738.29345703125 420 L 530 420 L 530 376 Z Z" stroke-miterlimit="10"/></g><g transform="translate(10,-30) scale(1,1)"><rect fill="#ffffff" stroke="none" x="520" y="383" width="20" height="10"/></g><g transform="translate(10,-30) scale(1,1)"><path fill="none" stroke="#000000" d="M 520 383 L 540 383 L 540 393 L 520 393 L 520 383 Z Z" stroke-miterlimit="10"/></g><g transform="translate(10,-30) scale(1,1)"><rect fill="#ffffff" stroke="none" x="520" y="403" width="20" height="10"/></g><g transform="translate(10,-30) scale(1,1)"><path fill="none" stroke="#000000" d="M 520 403 L 540 403 L 540 413 L 520 413 L 520 403 Z Z" stroke-miterlimit="10"/></g><g transform="translate(10,-30) scale(1,1)"><g><path fill="none" stroke="none"/><text fill="#000000" stroke="none" font-family="Arial" font-size="13px" font-style="normal" font-weight="normal" text-decoration="none" x="624.693115234375" y="393.5">«jar»</text></g></g><g transform="translate(10,-30) scale(1,1)"><g><path fill="none" stroke="none"/><text fill="#000000" stroke="none" font-family="Arial" font-size="13px" font-style="normal" font-weight="bold" text-decoration="none" x="547.759521484375" y="408.5">tweet-service V1.0-SNAPSHOT</text></g></g><g transform="translate(10,-30) scale(1,1)"><rect fill="#C0C0C0" stroke="none" x="841" y="207" width="263.89892578125" height="44" opacity="0.2"/></g><g transform="translate(10,-30) scale(1,1)"><rect fill="#ffffff" stroke="none" x="834" y="200" width="263.89892578125" height="44"/></g><g transform="translate(10,-30) scale(1,1)"><path fill="none" stroke="#000000" d="M 834 200 L 1097.89892578125 200 L 1097.89892578125 244 L 834 244 L 834 200 Z Z" stroke-miterlimit="10"/></g><g transform="translate(10,-30) scale(1,1)"><rect fill="#ffffff" stroke="none" x="824" y="207" width="20" height="10"/></g><g transform="translate(10,-30) scale(1,1)"><path fill="none" stroke="#000000" d="M 824 207 L 844 207 L 844 217 L 824 217 L 824 207 Z Z" stroke-miterlimit="10"/></g><g transform="translate(10,-30) scale(1,1)"><rect fill="#ffffff" stroke="none" x="824" y="227" width="20" height="10"/></g><g transform="translate(10,-30) scale(1,1)"><path fill="none" stroke="#000000" d="M 824 227 L 844 227 L 844 237 L 824 237 L 824 227 Z Z" stroke-miterlimit="10"/></g><g transform="translate(10,-30) scale(1,1)"><g><path fill="none" stroke="none"/><text fill="#000000" stroke="none" font-family="Arial" font-size="13px" font-style="normal" font-weight="normal" text-decoration="none" x="956.495849609375" y="217.5">«jar»</text></g></g><g transform="translate(10,-30) scale(1,1)"><g><path fill="none" stroke="none"/><text fill="#000000" stroke="none" font-family="Arial" font-size="13px" font-style="normal" font-weight="bold" text-decoration="none" x="854.622314453125" y="232.5">authentication-service V1.0-SNAPSHOT</text></g></g><g transform="translate(10,-30) scale(1,1)"><rect fill="#C0C0C0" stroke="none" x="17" y="47" width="183.0361328125" height="44" opacity="0.2"/></g><g transform="translate(10,-30) scale(1,1)"><rect fill="#ffffff" stroke="none" x="10" y="40" width="183.0361328125" height="44"/></g><g transform="translate(10,-30) scale(1,1)"><path fill="none" stroke="#000000" d="M 10 40 L 193.0361328125 40 L 193.0361328125 84 L 10 84 L 10 40 Z Z" stroke-miterlimit="10"/></g><g transform="translate(10,-30) scale(1,1)"><rect fill="#ffffff" stroke="none" x="0" y="47" width="20" height="10"/></g><g transform="translate(10,-30) scale(1,1)"><path fill="none" stroke="#000000" d="M 0 47 L 20 47 L 20 57 L 0 57 L 0 47 Z Z" stroke-miterlimit="10"/></g><g transform="translate(10,-30) scale(1,1)"><rect fill="#ffffff" stroke="none" x="0" y="67" width="20" height="10"/></g><g transform="translate(10,-30) scale(1,1)"><path fill="none" stroke="#000000" d="M 0 67 L 20 67 L 20 77 L 0 77 L 0 67 Z Z" stroke-miterlimit="10"/></g><g transform="translate(10,-30) scale(1,1)"><g><path fill="none" stroke="none"/><text fill="#000000" stroke="none" font-family="Arial" font-size="13px" font-style="normal" font-weight="normal" text-decoration="none" x="92.064453125" y="57.5">«jar»</text></g></g><g transform="translate(10,-30) scale(1,1)"><g><path fill="none" stroke="none"/><text fill="#000000" stroke="none" font-family="Arial" font-size="13px" font-style="normal" font-weight="bold" text-decoration="none" x="29.9462890625" y="72.5">mysql-java-driver v8.0.9-rc</text></g></g><g transform="translate(10,-30) scale(1,1)"><rect fill="#C0C0C0" stroke="none" x="217" y="47" width="155.5634765625" height="44" opacity="0.2"/></g><g transform="translate(10,-30) scale(1,1)"><rect fill="#ffffff" stroke="none" x="210" y="40" width="155.5634765625" height="44"/></g><g transform="translate(10,-30) scale(1,1)"><path fill="none" stroke="#000000" d="M 210 40 L 365.5634765625 40 L 365.5634765625 84 L 210 84 L 210 40 Z Z" stroke-miterlimit="10"/></g><g transform="translate(10,-30) scale(1,1)"><rect fill="#ffffff" stroke="none" x="200" y="47" width="20" height="10"/></g><g transform="translate(10,-30) scale(1,1)"><path fill="none" stroke="#000000" d="M 200 47 L 220 47 L 220 57 L 200 57 L 200 47 Z Z" stroke-miterlimit="10"/></g><g transform="translate(10,-30) scale(1,1)"><rect fill="#ffffff" stroke="none" x="200" y="67" width="20" height="10"/></g><g transform="translate(10,-30) scale(1,1)"><path fill="none" stroke="#000000" d="M 200 67 L 220 67 L 220 77 L 200 77 L 200 67 Z Z" stroke-miterlimit="10"/></g><g transform="translate(10,-30) scale(1,1)"><g><path fill="none" stroke="none"/><text fill="#000000" stroke="none" font-family="Arial" font-size="13px" font-style="normal" font-weight="normal" text-decoration="none" x="278.328125" y="57.5">«jar»</text></g></g><g transform="translate(10,-30) scale(1,1)"><g><path fill="none" stroke="none"/><text fill="#000000" stroke="none" font-family="Arial" font-size="13px" font-style="normal" font-weight="bold" text-decoration="none" x="228.844970703125" y="72.5">twitter4j-stream v4.0.6</text></g></g><g transform="translate(10,-30) scale(1,1)"><rect fill="#C0C0C0" stroke="none" x="225" y="407" width="98" height="44" opacity="0.2"/></g><g transform="translate(10,-30) scale(1,1)"><rect fill="#ffffff" stroke="none" x="218" y="400" width="98" height="44"/></g><g transform="translate(10,-30) scale(1,1)"><path fill="none" stroke="#000000" d="M 218 400 L 316 400 L 316 444 L 218 444 L 218 400 Z Z" stroke-miterlimit="10"/></g><g transform="translate(10,-30) scale(1,1)"><rect fill="#ffffff" stroke="none" x="208" y="407" width="20" height="10"/></g><g transform="translate(10,-30) scale(1,1)"><path fill="none" stroke="#000000" d="M 208 407 L 228 407 L 228 417 L 208 417 L 208 407 Z Z" stroke-miterlimit="10"/></g><g transform="translate(10,-30) scale(1,1)"><rect fill="#ffffff" stroke="none" x="208" y="427" width="20" height="10"/></g><g transform="translate(10,-30) scale(1,1)"><path fill="none" stroke="#000000" d="M 208 427 L 228 427 L 228 437 L 208 437 L 208 427 Z Z" stroke-miterlimit="10"/></g><g transform="translate(10,-30) scale(1,1)"><g><path fill="none" stroke="none"/><text fill="#000000" stroke="none" font-family="Arial" font-size="13px" font-style="normal" font-weight="normal" text-decoration="none" x="238.024169921875" y="417.5">«database»</text></g></g><g transform="translate(10,-30) scale(1,1)"><g><path fill="none" stroke="none"/><text fill="#000000" stroke="none" font-family="Arial" font-size="13px" font-style="normal" font-weight="bold" text-decoration="none" x="253.94091796875" y="432.5">MySql</text></g></g><g transform="translate(10,-30) scale(1,1)"><path fill="none" stroke="#000000" d="M 108 175 L 98 85" stroke-miterlimit="10" stroke-dasharray="3"/></g><g transform="translate(10,-30) scale(1,1)"><path fill="none" stroke="#000000" d="M 103.30605092205398 94.63565377193318 L 98 85 L 94.93850846500582 95.56538071160519" stroke-miterlimit="10"/></g><g transform="translate(10,-30) scale(1,1)"><g><path fill="none" stroke="none"/><text fill="#000000" stroke="none" font-family="Arial" font-size="13px" font-style="normal" font-weight="normal" text-decoration="none" x="73.76025390625" y="137.5">+use</text></g></g><g transform="translate(10,-30) scale(1,1)"><path fill="none" stroke="#000000" d="M 139 175 L 253 85" stroke-miterlimit="10" stroke-dasharray="3"/></g><g transform="translate(10,-30) scale(1,1)"><path fill="none" stroke="#000000" d="M 247.6318952877182 94.6012213701163 L 253 85 L 242.41508801734366 87.99326549430853" stroke-miterlimit="10"/></g><g transform="translate(10,-30) scale(1,1)"><g><path fill="none" stroke="none"/><text fill="#000000" stroke="none" font-family="Arial" font-size="13px" font-style="normal" font-weight="normal" text-decoration="none" x="171.76025390625" y="124.5">+use</text></g></g><g transform="translate(10,-30) scale(1,1)"><path fill="#C0C0C0" stroke="none" d="M 645.84423828125 514.5 C 645.84423828125 508.1487248 650.99296308125 503 657.34423828125 503 C 663.69551348125 503 668.84423828125 508.1487248 668.84423828125 514.5 C 668.84423828125 520.8512752 663.69551348125 526 657.34423828125 526 C 650.99296308125 526 645.84423828125 520.8512752 645.84423828125 514.5 Z" opacity="0.2"/></g><g transform="translate(10,-30) scale(1,1)"><path fill="#ffffff" stroke="none" d="M 638.84423828125 507.5 C 638.84423828125 501.1487248 643.99296308125 496 650.34423828125 496 C 656.69551348125 496 661.84423828125 501.1487248 661.84423828125 507.5 C 661.84423828125 513.8512752 656.69551348125 519 650.34423828125 519 C 643.99296308125 519 638.84423828125 513.8512752 638.84423828125 507.5 Z"/></g><g transform="translate(10,-30) scale(1,1)"><path fill="none" stroke="#000000" d="M 638.84423828125 507.5 C 638.84423828125 501.1487248 643.99296308125 496 650.34423828125 496 C 656.69551348125 496 661.84423828125 501.1487248 661.84423828125 507.5 C 661.84423828125 513.8512752 656.69551348125 519 650.34423828125 519 C 643.99296308125 519 638.84423828125 513.8512752 638.84423828125 507.5 Z" stroke-miterlimit="10"/></g><g transform="translate(10,-30) scale(1,1)"><g><path fill="none" stroke="none"/><text fill="#000000" stroke="none" font-family="Arial" font-size="13px" font-style="normal" font-weight="bold" text-decoration="none" x="639.50244140625" y="538.5">http</text></g></g><g transform="translate(10,-30) scale(1,1)"><path fill="none" stroke="#000000" d="M 633 421 L 646.3333333333334 496" stroke-miterlimit="10"/></g><g transform="translate(10,-30) scale(1,1)"><path fill="none" stroke="#000000" d="M 573 421 L 441.697265625 468.52573029891306" stroke-miterlimit="10"/></g><g transform="translate(10,-30) scale(1,1)"><path fill="#C0C0C0" stroke="none" d="M 425.697265625 474.5 C 425.697265625 468.1487248 430.845990425 463 437.197265625 463 C 443.548540825 463 448.697265625 468.1487248 448.697265625 474.5 C 448.697265625 480.8512752 443.548540825 486 437.197265625 486 C 430.845990425 486 425.697265625 480.8512752 425.697265625 474.5 Z" opacity="0.2"/></g><g transform="translate(10,-30) scale(1,1)"><path fill="none" stroke="#000000" d="M 431.4874006167793 455.59659527135847 A 11.5 11.5 0 0 1 428.5125993832207 478.40340472864153" stroke-miterlimit="10"/></g><g transform="translate(10,-30) scale(1,1)"><path fill="#ffffff" stroke="none" d="M 421.697265625 467.5 C 421.697265625 462.8055792 425.502844825 459 430.197265625 459 C 434.891686425 459 438.697265625 462.8055792 438.697265625 467.5 C 438.697265625 472.1944208 434.891686425 476 430.197265625 476 C 425.502844825 476 421.697265625 472.1944208 421.697265625 467.5 Z"/></g><g transform="translate(10,-30) scale(1,1)"><path fill="none" stroke="#000000" d="M 421.697265625 467.5 C 421.697265625 462.8055792 425.502844825 459 430.197265625 459 C 434.891686425 459 438.697265625 462.8055792 438.697265625 467.5 C 438.697265625 472.1944208 434.891686425 476 430.197265625 476 C 425.502844825 476 421.697265625 472.1944208 421.697265625 467.5 Z" stroke-miterlimit="10"/></g><g transform="translate(10,-30) scale(1,1)"><g><path fill="none" stroke="none"/><text fill="#000000" stroke="none" font-family="Arial" font-size="13px" font-style="normal" font-weight="bold" text-decoration="none" x="413.2236328125" y="498.5">JDBC</text></g></g><g transform="translate(10,-30) scale(1,1)"><path fill="none" stroke="#000000" d="M 317 441 L 418.697265625 469.45711616847825" stroke-miterlimit="10"/></g><g transform="translate(10,-30) scale(1,1)"><path fill="#C0C0C0" stroke="none" d="M 161.697265625 266.5 C 161.697265625 260.1487248 166.845990425 255 173.197265625 255 C 179.548540825 255 184.697265625 260.1487248 184.697265625 266.5 C 184.697265625 272.8512752 179.548540825 278 173.197265625 278 C 166.845990425 278 161.697265625 272.8512752 161.697265625 266.5 Z" opacity="0.2"/></g><g transform="translate(10,-30) scale(1,1)"><path fill="#ffffff" stroke="none" d="M 154.697265625 259.5 C 154.697265625 253.1487248 159.845990425 248 166.197265625 248 C 172.548540825 248 177.697265625 253.1487248 177.697265625 259.5 C 177.697265625 265.8512752 172.548540825 271 166.197265625 271 C 159.845990425 271 154.697265625 265.8512752 154.697265625 259.5 Z"/></g><g transform="translate(10,-30) scale(1,1)"><path fill="none" stroke="#000000" d="M 154.697265625 259.5 C 154.697265625 253.1487248 159.845990425 248 166.197265625 248 C 172.548540825 248 177.697265625 253.1487248 177.697265625 259.5 C 177.697265625 265.8512752 172.548540825 271 166.197265625 271 C 159.845990425 271 154.697265625 265.8512752 154.697265625 259.5 Z" stroke-miterlimit="10"/></g><g transform="translate(10,-30) scale(1,1)"><g><path fill="none" stroke="none"/><text fill="#000000" stroke="none" font-family="Arial" font-size="13px" font-style="normal" font-weight="bold" text-decoration="none" x="149.2236328125" y="290.5">JDBC</text></g></g><g transform="translate(10,-30) scale(1,1)"><path fill="none" stroke="#000000" d="M 241 399 L 168 320 L 166.31578947368422 271" stroke-miterlimit="10"/></g><g transform="translate(10,-30) scale(1,1)"><path fill="none" stroke="#000000" d="M 150.57692307692307 261.6153846153846 A 11.5 11.5 0 0 1 159.42307692307693 240.3846153846154" stroke-miterlimit="10"/></g><g transform="translate(10,-30) scale(1,1)"><g><path fill="none" stroke="none"/><text fill="#000000" stroke="none" font-family="Arial" font-size="13px" font-style="normal" font-weight="bold" text-decoration="none" x="155.5" y="282.5"></text></g></g><g transform="translate(10,-30) scale(1,1)"><path fill="none" stroke="#000000" d="M 126 221 L 144 246.41666666666666" stroke-miterlimit="10"/></g><g transform="translate(10,-30) scale(1,1)"><rect fill="#C0C0C0" stroke="none" x="385" y="47" width="121.54150390625" height="44" opacity="0.2"/></g><g transform="translate(10,-30) scale(1,1)"><rect fill="#ffffff" stroke="none" x="378" y="40" width="121.54150390625" height="44"/></g><g transform="translate(10,-30) scale(1,1)"><path fill="none" stroke="#000000" d="M 378 40 L 499.54150390625 40 L 499.54150390625 84 L 378 84 L 378 40 Z Z" stroke-miterlimit="10"/></g><g transform="translate(10,-30) scale(1,1)"><rect fill="#ffffff" stroke="none" x="368" y="47" width="20" height="10"/></g><g transform="translate(10,-30) scale(1,1)"><path fill="none" stroke="#000000" d="M 368 47 L 388 47 L 388 57 L 368 57 L 368 47 Z Z" stroke-miterlimit="10"/></g><g transform="translate(10,-30) scale(1,1)"><rect fill="#ffffff" stroke="none" x="368" y="67" width="20" height="10"/></g><g transform="translate(10,-30) scale(1,1)"><path fill="none" stroke="#000000" d="M 368 67 L 388 67 L 388 77 L 368 77 L 368 67 Z Z" stroke-miterlimit="10"/></g><g transform="translate(10,-30) scale(1,1)"><g><path fill="none" stroke="none"/><text fill="#000000" stroke="none" font-family="Arial" font-size="13px" font-style="normal" font-weight="bold" text-decoration="none" x="398.2421875" y="59.5">Bootsrap v3.3.2</text></g></g><g transform="translate(10,-30) scale(1,1)"><path fill="none" stroke="#000000" d="M 618 375 L 512 152 L 453 85" stroke-miterlimit="10" stroke-dasharray="3"/></g><g transform="translate(10,-30) scale(1,1)"><path fill="none" stroke="#000000" d="M 462.8755186061163 89.8450110691567 L 453 85 L 456.5571059921942 95.40898635604333" stroke-miterlimit="10"/></g><g transform="translate(10,-30) scale(1,1)"><g><path fill="none" stroke="none"/><text fill="#000000" stroke="none" font-family="Arial" font-size="13px" font-style="normal" font-weight="normal" text-decoration="none" x="485.76025390625" y="167.5">+use</text></g></g><g transform="translate(10,-30) scale(1,1)"><rect fill="#C0C0C0" stroke="none" x="545" y="47" width="270.3798828125" height="44" opacity="0.2"/></g><g transform="translate(10,-30) scale(1,1)"><rect fill="#ffffff" stroke="none" x="538" y="40" width="270.3798828125" height="44"/></g><g transform="translate(10,-30) scale(1,1)"><path fill="none" stroke="#000000" d="M 538 40 L 808.3798828125 40 L 808.3798828125 84 L 538 84 L 538 40 Z Z" stroke-miterlimit="10"/></g><g transform="translate(10,-30) scale(1,1)"><rect fill="#ffffff" stroke="none" x="528" y="47" width="20" height="10"/></g><g transform="translate(10,-30) scale(1,1)"><path fill="none" stroke="#000000" d="M 528 47 L 548 47 L 548 57 L 528 57 L 528 47 Z Z" stroke-miterlimit="10"/></g><g transform="translate(10,-30) scale(1,1)"><rect fill="#ffffff" stroke="none" x="528" y="67" width="20" height="10"/></g><g transform="translate(10,-30) scale(1,1)"><path fill="none" stroke="#000000" d="M 528 67 L 548 67 L 548 77 L 528 77 L 528 67 Z Z" stroke-miterlimit="10"/></g><g transform="translate(10,-30) scale(1,1)"><g><path fill="none" stroke="none"/><text fill="#000000" stroke="none" font-family="Arial" font-size="13px" font-style="normal" font-weight="normal" text-decoration="none" x="651.45361328125" y="57.5">«artifact»</text></g></g><g transform="translate(10,-30) scale(1,1)"><g><path fill="none" stroke="none"/><text fill="#000000" stroke="none" font-family="Arial" font-size="13px" font-style="normal" font-weight="bold" text-decoration="none" x="559.326904296875" y="72.5">spring-boot-starter-web 1.5.10.RELEASE</text></g></g><g transform="translate(10,-30) scale(1,1)"><path fill="none" stroke="#000000" d="M 641 375 L 696 264 L 671 85" stroke-miterlimit="10" stroke-dasharray="3"/></g><g transform="translate(10,-30) scale(1,1)"><path fill="none" stroke="#000000" d="M 676.5747768277373 94.48271392170635 L 671 85 L 668.2366711804041 95.6472538165853" stroke-miterlimit="10"/></g><g transform="translate(10,-30) scale(1,1)"><g><path fill="none" stroke="none"/><text fill="#000000" stroke="none" font-family="Arial" font-size="13px" font-style="normal" font-weight="normal" text-decoration="none" x="666.76025390625" y="272.5">+use</text></g></g><g transform="translate(10,-30) scale(1,1)"><rect fill="#C0C0C0" stroke="none" x="281" y="199" width="234" height="44" opacity="0.2"/></g><g transform="translate(10,-30) scale(1,1)"><rect fill="#ffffff" stroke="none" x="274" y="192" width="234" height="44"/></g><g transform="translate(10,-30) scale(1,1)"><path fill="none" stroke="#000000" d="M 274 192 L 508 192 L 508 236 L 274 236 L 274 192 Z Z" stroke-miterlimit="10"/></g><g transform="translate(10,-30) scale(1,1)"><rect fill="#ffffff" stroke="none" x="264" y="199" width="20" height="10"/></g><g transform="translate(10,-30) scale(1,1)"><path fill="none" stroke="#000000" d="M 264 199 L 284 199 L 284 209 L 264 209 L 264 199 Z Z" stroke-miterlimit="10"/></g><g transform="translate(10,-30) scale(1,1)"><rect fill="#ffffff" stroke="none" x="264" y="219" width="20" height="10"/></g><g transform="translate(10,-30) scale(1,1)"><path fill="none" stroke="#000000" d="M 264 219 L 284 219 L 284 229 L 264 229 L 264 219 Z Z" stroke-miterlimit="10"/></g><g transform="translate(10,-30) scale(1,1)"><g><path fill="none" stroke="none"/><text fill="#000000" stroke="none" font-family="Arial" font-size="13px" font-style="normal" font-weight="normal" text-decoration="none" x="381.54638671875" y="209.5">«jar»</text></g></g><g transform="translate(10,-30) scale(1,1)"><g><path fill="none" stroke="none"/><text fill="#000000" stroke="none" font-family="Arial" font-size="13px" font-style="normal" font-weight="bold" text-decoration="none" x="291.6064453125" y="224.5">Tweet Common V0.0.1-SNAPSHOT</text></g></g><g transform="translate(10,-30) scale(1,1)"><path fill="none" stroke="#000000" d="M 221 204 L 263 207" stroke-miterlimit="10" stroke-dasharray="3"/></g><g transform="translate(10,-30) scale(1,1)"><path fill="none" stroke="#000000" d="M 252.56323582772384 210.47475950423808 L 263 207 L 253.16306727169956 202.07711928857788" stroke-miterlimit="10"/></g><g transform="translate(10,-30) scale(1,1)"><g><path fill="none" stroke="none"/><text fill="#000000" stroke="none" font-family="Arial" font-size="13px" font-style="normal" font-weight="normal" text-decoration="none" x="228.72412109375" y="196.5">+use</text></g></g><g transform="translate(10,-30) scale(1,1)"><path fill="none" stroke="#000000" d="M 599 375 L 416 237" stroke-miterlimit="10" stroke-dasharray="3"/></g><g transform="translate(10,-30) scale(1,1)"><path fill="none" stroke="#000000" d="M 426.64866748020023 239.7578761567783 L 416 237 L 421.5796320537196 246.4798579179809" stroke-miterlimit="10"/></g><g transform="translate(10,-30) scale(1,1)"><g><path fill="none" stroke="none"/><text fill="#000000" stroke="none" font-family="Arial" font-size="13px" font-style="normal" font-weight="normal" text-decoration="none" x="482.72412109375" y="323.5">+use</text></g></g><g transform="translate(10,-30) scale(1,1)"><path fill="none" stroke="#000000" d="M 823 220 L 509 216" stroke-miterlimit="10" stroke-dasharray="3"/></g><g transform="translate(10,-30) scale(1,1)"><path fill="none" stroke="#000000" d="M 519.2154704462203 211.92027408244115 L 509 216 L 519.1082302872214 220.3386265638447" stroke-miterlimit="10"/></g><g transform="translate(10,-30) scale(1,1)"><rect fill="#C0C0C0" stroke="none" x="1217" y="127" width="159.88623046875" height="44" opacity="0.2"/></g><g transform="translate(10,-30) scale(1,1)"><rect fill="#ffffff" stroke="none" x="1210" y="120" width="159.88623046875" height="44"/></g><g transform="translate(10,-30) scale(1,1)"><path fill="none" stroke="#000000" d="M 1210 120 L 1369.88623046875 120 L 1369.88623046875 164 L 1210 164 L 1210 120 Z Z" stroke-miterlimit="10"/></g><g transform="translate(10,-30) scale(1,1)"><rect fill="#ffffff" stroke="none" x="1200" y="127" width="20" height="10"/></g><g transform="translate(10,-30) scale(1,1)"><path fill="none" stroke="#000000" d="M 1200 127 L 1220 127 L 1220 137 L 1200 137 L 1200 127 Z Z" stroke-miterlimit="10"/></g><g transform="translate(10,-30) scale(1,1)"><rect fill="#ffffff" stroke="none" x="1200" y="147" width="20" height="10"/></g><g transform="translate(10,-30) scale(1,1)"><path fill="none" stroke="#000000" d="M 1200 147 L 1220 147 L 1220 157 L 1200 157 L 1200 147 Z Z" stroke-miterlimit="10"/></g><g transform="translate(10,-30) scale(1,1)"><g><path fill="none" stroke="none"/><text fill="#000000" stroke="none" font-family="Arial" font-size="13px" font-style="normal" font-weight="normal" text-decoration="none" x="1280.489501953125" y="137.5">«jar»</text></g></g><g transform="translate(10,-30) scale(1,1)"><g><path fill="none" stroke="none"/><text fill="#000000" stroke="none" font-family="Arial" font-size="13px" font-style="normal" font-weight="bold" text-decoration="none" x="1228.46728515625" y="152.5">commons-codec V1.11</text></g></g><g transform="translate(10,-30) scale(1,1)"><path fill="none" stroke="#000000" d="M 1053 199 L 1199 163" stroke-miterlimit="10" stroke-dasharray="3"/></g><g transform="translate(10,-30) scale(1,1)"><path fill="none" stroke="#000000" d="M 1190.1406366657743 169.52009825939584 L 1199 163 L 1188.125078416152 161.3458898025949" stroke-miterlimit="10"/></g><g transform="translate(10,-30) scale(1,1)"><rect fill="#C0C0C0" stroke="none" x="857" y="111" width="98.44091796875" height="44" opacity="0.2"/></g><g transform="translate(10,-30) scale(1,1)"><rect fill="#ffffff" stroke="none" x="850" y="104" width="98.44091796875" height="44"/></g><g transform="translate(10,-30) scale(1,1)"><path fill="none" stroke="#000000" d="M 850 104 L 948.44091796875 104 L 948.44091796875 148 L 850 148 L 850 104 Z Z" stroke-miterlimit="10"/></g><g transform="translate(10,-30) scale(1,1)"><rect fill="#ffffff" stroke="none" x="840" y="111" width="20" height="10"/></g><g transform="translate(10,-30) scale(1,1)"><path fill="none" stroke="#000000" d="M 840 111 L 860 111 L 860 121 L 840 121 L 840 111 Z Z" stroke-miterlimit="10"/></g><g transform="translate(10,-30) scale(1,1)"><rect fill="#ffffff" stroke="none" x="840" y="131" width="20" height="10"/></g><g transform="translate(10,-30) scale(1,1)"><path fill="none" stroke="#000000" d="M 840 131 L 860 131 L 860 141 L 840 141 L 840 131 Z Z" stroke-miterlimit="10"/></g><g transform="translate(10,-30) scale(1,1)"><g><path fill="none" stroke="none"/><text fill="#000000" stroke="none" font-family="Arial" font-size="13px" font-style="normal" font-weight="normal" text-decoration="none" x="889.766845703125" y="121.5">«jar»</text></g></g><g transform="translate(10,-30) scale(1,1)"><g><path fill="none" stroke="none"/><text fill="#000000" stroke="none" font-family="Arial" font-size="13px" font-style="normal" font-weight="bold" text-decoration="none" x="885.06640625" y="136.5">hsqldb</text></g></g><g transform="translate(10,-30) scale(1,1)"><rect fill="#C0C0C0" stroke="none" x="1017" y="71" width="140.39892578125" height="44" opacity="0.2"/></g><g transform="translate(10,-30) scale(1,1)"><rect fill="#ffffff" stroke="none" x="1010" y="64" width="140.39892578125" height="44"/></g><g transform="translate(10,-30) scale(1,1)"><path fill="none" stroke="#000000" d="M 1010 64 L 1150.39892578125 64 L 1150.39892578125 108 L 1010 108 L 1010 64 Z Z" stroke-miterlimit="10"/></g><g transform="translate(10,-30) scale(1,1)"><rect fill="#ffffff" stroke="none" x="1000" y="71" width="20" height="10"/></g><g transform="translate(10,-30) scale(1,1)"><path fill="none" stroke="#000000" d="M 1000 71 L 1020 71 L 1020 81 L 1000 81 L 1000 71 Z Z" stroke-miterlimit="10"/></g><g transform="translate(10,-30) scale(1,1)"><rect fill="#ffffff" stroke="none" x="1000" y="91" width="20" height="10"/></g><g transform="translate(10,-30) scale(1,1)"><path fill="none" stroke="#000000" d="M 1000 91 L 1020 91 L 1020 101 L 1000 101 L 1000 91 Z Z" stroke-miterlimit="10"/></g><g transform="translate(10,-30) scale(1,1)"><g><path fill="none" stroke="none"/><text fill="#000000" stroke="none" font-family="Arial" font-size="13px" font-style="normal" font-weight="normal" text-decoration="none" x="1070.745849609375" y="81.5">«jar»</text></g></g><g transform="translate(10,-30) scale(1,1)"><g><path fill="none" stroke="none"/><text fill="#000000" stroke="none" font-family="Arial" font-size="13px" font-style="normal" font-weight="bold" text-decoration="none" x="1027.753173828125" y="96.5">jackson-core V2.5.0</text></g></g><g transform="translate(10,-30) scale(1,1)"><path fill="none" stroke="#000000" d="M 944 199 L 910 149" stroke-miterlimit="10" stroke-dasharray="3"/></g><g transform="translate(10,-30) scale(1,1)"><path fill="none" stroke="#000000" d="M 919.1955357101277 155.0367311521854 L 910 149 L 912.233612123364 159.77083919118476" stroke-miterlimit="10"/></g><g transform="translate(10,-30) scale(1,1)"><g><path fill="none" stroke="none"/><text fill="#000000" stroke="none" font-family="Arial" font-size="13px" font-style="normal" font-weight="normal" text-decoration="none" x="899.66455078125" y="188.5">+use</text></g></g><g transform="translate(10,-30) scale(1,1)"><path fill="none" stroke="#000000" d="M 979 199 L 1056 109" stroke-miterlimit="10" stroke-dasharray="3"/></g><g transform="translate(10,-30) scale(1,1)"><path fill="none" stroke="#000000" d="M 1052.5918991709173 119.45872118085212 L 1056 109 L 1046.1946761232682 113.98554146230794" stroke-miterlimit="10"/></g><g transform="translate(10,-30) scale(1,1)"><g><path fill="none" stroke="none"/><text fill="#000000" stroke="none" font-family="Arial" font-size="13px" font-style="normal" font-weight="normal" text-decoration="none" x="990.66455078125" y="150.5">+use</text></g></g><g transform="translate(10,-30) scale(1,1)"><rect fill="#C0C0C0" stroke="none" x="1145" y="359" width="167.103515625" height="44" opacity="0.2"/></g><g transform="translate(10,-30) scale(1,1)"><rect fill="#ffffff" stroke="none" x="1138" y="352" width="167.103515625" height="44"/></g><g transform="translate(10,-30) scale(1,1)"><path fill="none" stroke="#000000" d="M 1138 352 L 1305.103515625 352 L 1305.103515625 396 L 1138 396 L 1138 352 Z Z" stroke-miterlimit="10"/></g><g transform="translate(10,-30) scale(1,1)"><rect fill="#ffffff" stroke="none" x="1128" y="359" width="20" height="10"/></g><g transform="translate(10,-30) scale(1,1)"><path fill="none" stroke="#000000" d="M 1128 359 L 1148 359 L 1148 369 L 1128 369 L 1128 359 Z Z" stroke-miterlimit="10"/></g><g transform="translate(10,-30) scale(1,1)"><rect fill="#ffffff" stroke="none" x="1128" y="379" width="20" height="10"/></g><g transform="translate(10,-30) scale(1,1)"><path fill="none" stroke="#000000" d="M 1128 379 L 1148 379 L 1148 389 L 1128 389 L 1128 379 Z Z" stroke-miterlimit="10"/></g><g transform="translate(10,-30) scale(1,1)"><g><path fill="none" stroke="none"/><text fill="#000000" stroke="none" font-family="Arial" font-size="13px" font-style="normal" font-weight="bold" text-decoration="none" x="1156.81005859375" y="371.5">jackson-databind V2.5.0</text></g></g><g transform="translate(10,-30) scale(1,1)"><path fill="none" stroke="#000000" d="M 633 421 L 646.3333333333334 496" stroke-miterlimit="10"/></g><g transform="translate(10,-30) scale(1,1)"><path fill="#C0C0C0" stroke="none" d="M 958.7099609375 298.5 C 958.7099609375 292.1487248 963.8586857375 287 970.2099609375 287 C 976.5612361375 287 981.7099609375 292.1487248 981.7099609375 298.5 C 981.7099609375 304.8512752 976.5612361375 310 970.2099609375 310 C 963.8586857375 310 958.7099609375 304.8512752 958.7099609375 298.5 Z" opacity="0.2"/></g><g transform="translate(10,-30) scale(1,1)"><path fill="#ffffff" stroke="none" d="M 951.7099609375 291.5 C 951.7099609375 285.1487248 956.8586857375 280 963.2099609375 280 C 969.5612361375 280 974.7099609375 285.1487248 974.7099609375 291.5 C 974.7099609375 297.8512752 969.5612361375 303 963.2099609375 303 C 956.8586857375 303 951.7099609375 297.8512752 951.7099609375 291.5 Z"/></g><g transform="translate(10,-30) scale(1,1)"><path fill="none" stroke="#000000" d="M 951.7099609375 291.5 C 951.7099609375 285.1487248 956.8586857375 280 963.2099609375 280 C 969.5612361375 280 974.7099609375 285.1487248 974.7099609375 291.5 C 974.7099609375 297.8512752 969.5612361375 303 963.2099609375 303 C 956.8586857375 303 951.7099609375 297.8512752 951.7099609375 291.5 Z" stroke-miterlimit="10"/></g><g transform="translate(10,-30) scale(1,1)"><g><path fill="none" stroke="none"/><text fill="#000000" stroke="none" font-family="Arial" font-size="13px" font-style="normal" font-weight="bold" text-decoration="none" x="952.3681640625" y="322.5">http</text></g></g><g transform="translate(10,-30) scale(1,1)"><path fill="none" stroke="#000000" d="M 961 245 L 962.0833333333334 280" stroke-miterlimit="10"/></g><g transform="translate(10,-30) scale(1,1)"><path fill="none" stroke="#000000" d="M 999 245 L 1177 351" stroke-miterlimit="10" stroke-dasharray="3"/></g><g transform="translate(10,-30) scale(1,1)"><path fill="none" stroke="#000000" d="M 1166.1144978639584 349.41701445166706 L 1177 351 L 1170.4221274387307 342.1834478072377" stroke-miterlimit="10"/></g><g transform="translate(10,-30) scale(1,1)"><g><path fill="none" stroke="none"/><text fill="#000000" stroke="none" font-family="Arial" font-size="13px" font-style="normal" font-weight="normal" text-decoration="none" x="1080.5" y="291.5">+use</text></g></g></g></svg>