<svg version="1.1" xmlns="http://www.w3.org/2000/svg" xmlns:xlink="http://www.w3.org/1999/xlink" width="1116" height="320"><defs/><g><g transform="translate(10,-30) scale(1,1)"><rect fill="#C0C0C0" stroke="none" x="17" y="183" width="208" height="44" opacity="0.2"/></g><g transform="translate(10,-30) scale(1,1)"><rect fill="#ffffff" stroke="none" x="10" y="176" width="208" height="44"/></g><g transform="translate(10,-30) scale(1,1)"><path fill="none" stroke="#000000" d="M 10 176 L 218 176 L 218 220 L 10 220 L 10 176 Z Z" stroke-miterlimit="10"/></g><g transform="translate(10,-30) scale(1,1)"><rect fill="#ffffff" stroke="none" x="0" y="183" width="20" height="10"/></g><g transform="translate(10,-30) scale(1,1)"><path fill="none" stroke="#000000" d="M 0 183 L 20 183 L 20 193 L 0 193 L 0 183 Z Z" stroke-miterlimit="10"/></g><g transform="translate(10,-30) scale(1,1)"><rect fill="#ffffff" stroke="none" x="0" y="203" width="20" height="10"/></g><g transform="translate(10,-30) scale(1,1)"><path fill="none" stroke="#000000" d="M 0 203 L 20 203 L 20 213 L 0 213 L 0 203 Z Z" stroke-miterlimit="10"/></g><g transform="translate(10,-30) scale(1,1)"><g><path fill="none" stroke="none"/><text fill="#000000" stroke="none" font-family="Arial" font-size="13px" font-style="normal" font-weight="normal" text-decoration="none" x="105" y="193.5">«jar»</text></g></g><g transform="translate(10,-30) scale(1,1)"><g><path fill="none" stroke="none"/><text fill="#000000" stroke="none" font-family="Arial" font-size="13px" font-style="normal" font-weight="bold" text-decoration="none" x="26.5" y="208.5">tweet-scraper V1.0-SNAPSHOT</text></g></g><g transform="translate(10,-30) scale(1,1)"><rect fill="#C0C0C0" stroke="none" x="553" y="183" width="206" height="44" opacity="0.2"/></g><g transform="translate(10,-30) scale(1,1)"><rect fill="#ffffff" stroke="none" x="546" y="176" width="206" height="44"/></g><g transform="translate(10,-30) scale(1,1)"><path fill="none" stroke="#000000" d="M 546 176 L 752 176 L 752 220 L 546 220 L 546 176 Z Z" stroke-miterlimit="10"/></g><g transform="translate(10,-30) scale(1,1)"><rect fill="#ffffff" stroke="none" x="536" y="183" width="20" height="10"/></g><g transform="translate(10,-30) scale(1,1)"><path fill="none" stroke="#000000" d="M 536 183 L 556 183 L 556 193 L 536 193 L 536 183 Z Z" stroke-miterlimit="10"/></g><g transform="translate(10,-30) scale(1,1)"><rect fill="#ffffff" stroke="none" x="536" y="203" width="20" height="10"/></g><g transform="translate(10,-30) scale(1,1)"><path fill="none" stroke="#000000" d="M 536 203 L 556 203 L 556 213 L 536 213 L 536 203 Z Z" stroke-miterlimit="10"/></g><g transform="translate(10,-30) scale(1,1)"><g><path fill="none" stroke="none"/><text fill="#000000" stroke="none" font-family="Arial" font-size="13px" font-style="normal" font-weight="normal" text-decoration="none" x="640" y="193.5">«jar»</text></g></g><g transform="translate(10,-30) scale(1,1)"><g><path fill="none" stroke="none"/><text fill="#000000" stroke="none" font-family="Arial" font-size="13px" font-style="normal" font-weight="bold" text-decoration="none" x="562" y="208.5">tweet-service V1.0-SNAPSHOT</text></g></g><g transform="translate(10,-30) scale(1,1)"><rect fill="#C0C0C0" stroke="none" x="841" y="183" width="262" height="44" opacity="0.2"/></g><g transform="translate(10,-30) scale(1,1)"><rect fill="#ffffff" stroke="none" x="834" y="176" width="262" height="44"/></g><g transform="translate(10,-30) scale(1,1)"><path fill="none" stroke="#000000" d="M 834 176 L 1096 176 L 1096 220 L 834 220 L 834 176 Z Z" stroke-miterlimit="10"/></g><g transform="translate(10,-30) scale(1,1)"><rect fill="#ffffff" stroke="none" x="824" y="183" width="20" height="10"/></g><g transform="translate(10,-30) scale(1,1)"><path fill="none" stroke="#000000" d="M 824 183 L 844 183 L 844 193 L 824 193 L 824 183 Z Z" stroke-miterlimit="10"/></g><g transform="translate(10,-30) scale(1,1)"><rect fill="#ffffff" stroke="none" x="824" y="203" width="20" height="10"/></g><g transform="translate(10,-30) scale(1,1)"><path fill="none" stroke="#000000" d="M 824 203 L 844 203 L 844 213 L 824 213 L 824 203 Z Z" stroke-miterlimit="10"/></g><g transform="translate(10,-30) scale(1,1)"><g><path fill="none" stroke="none"/><text fill="#000000" stroke="none" font-family="Arial" font-size="13px" font-style="normal" font-weight="normal" text-decoration="none" x="956" y="193.5">«jar»</text></g></g><g transform="translate(10,-30) scale(1,1)"><g><path fill="none" stroke="none"/><text fill="#000000" stroke="none" font-family="Arial" font-size="13px" font-style="normal" font-weight="bold" text-decoration="none" x="853" y="208.5">authentication-service V1.0-SNAPSHOT</text></g></g><g transform="translate(10,-30) scale(1,1)"><rect fill="#C0C0C0" stroke="none" x="17" y="47" width="182" height="44" opacity="0.2"/></g><g transform="translate(10,-30) scale(1,1)"><rect fill="#ffffff" stroke="none" x="10" y="40" width="182" height="44"/></g><g transform="translate(10,-30) scale(1,1)"><path fill="none" stroke="#000000" d="M 10 40 L 192 40 L 192 84 L 10 84 L 10 40 Z Z" stroke-miterlimit="10"/></g><g transform="translate(10,-30) scale(1,1)"><rect fill="#ffffff" stroke="none" x="0" y="47" width="20" height="10"/></g><g transform="translate(10,-30) scale(1,1)"><path fill="none" stroke="#000000" d="M 0 47 L 20 47 L 20 57 L 0 57 L 0 47 Z Z" stroke-miterlimit="10"/></g><g transform="translate(10,-30) scale(1,1)"><rect fill="#ffffff" stroke="none" x="0" y="67" width="20" height="10"/></g><g transform="translate(10,-30) scale(1,1)"><path fill="none" stroke="#000000" d="M 0 67 L 20 67 L 20 77 L 0 77 L 0 67 Z Z" stroke-miterlimit="10"/></g><g transform="translate(10,-30) scale(1,1)"><g><path fill="none" stroke="none"/><text fill="#000000" stroke="none" font-family="Arial" font-size="13px" font-style="normal" font-weight="normal" text-decoration="none" x="92" y="57.5">«jar»</text></g></g><g transform="translate(10,-30) scale(1,1)"><g><path fill="none" stroke="none"/><text fill="#000000" stroke="none" font-family="Arial" font-size="13px" font-style="normal" font-weight="bold" text-decoration="none" x="29" y="72.5">mysql-java-driver v8.0.9-rc</text></g></g><g transform="translate(10,-30) scale(1,1)"><rect fill="#C0C0C0" stroke="none" x="217" y="47" width="154" height="44" opacity="0.2"/></g><g transform="translate(10,-30) scale(1,1)"><rect fill="#ffffff" stroke="none" x="210" y="40" width="154" height="44"/></g><g transform="translate(10,-30) scale(1,1)"><path fill="none" stroke="#000000" d="M 210 40 L 364 40 L 364 84 L 210 84 L 210 40 Z Z" stroke-miterlimit="10"/></g><g transform="translate(10,-30) scale(1,1)"><rect fill="#ffffff" stroke="none" x="200" y="47" width="20" height="10"/></g><g transform="translate(10,-30) scale(1,1)"><path fill="none" stroke="#000000" d="M 200 47 L 220 47 L 220 57 L 200 57 L 200 47 Z Z" stroke-miterlimit="10"/></g><g transform="translate(10,-30) scale(1,1)"><rect fill="#ffffff" stroke="none" x="200" y="67" width="20" height="10"/></g><g transform="translate(10,-30) scale(1,1)"><path fill="none" stroke="#000000" d="M 200 67 L 220 67 L 220 77 L 200 77 L 200 67 Z Z" stroke-miterlimit="10"/></g><g transform="translate(10,-30) scale(1,1)"><g><path fill="none" stroke="none"/><text fill="#000000" stroke="none" font-family="Arial" font-size="13px" font-style="normal" font-weight="normal" text-decoration="none" x="278" y="57.5">«jar»</text></g></g><g transform="translate(10,-30) scale(1,1)"><g><path fill="none" stroke="none"/><text fill="#000000" stroke="none" font-family="Arial" font-size="13px" font-style="normal" font-weight="bold" text-decoration="none" x="227.5" y="72.5">twitter4j-stream v4.0.6</text></g></g><g transform="translate(10,-30) scale(1,1)"><rect fill="#C0C0C0" stroke="none" x="353" y="303" width="98" height="44" opacity="0.2"/></g><g transform="translate(10,-30) scale(1,1)"><rect fill="#ffffff" stroke="none" x="346" y="296" width="98" height="44"/></g><g transform="translate(10,-30) scale(1,1)"><path fill="none" stroke="#000000" d="M 346 296 L 444 296 L 444 340 L 346 340 L 346 296 Z Z" stroke-miterlimit="10"/></g><g transform="translate(10,-30) scale(1,1)"><rect fill="#ffffff" stroke="none" x="336" y="303" width="20" height="10"/></g><g transform="translate(10,-30) scale(1,1)"><path fill="none" stroke="#000000" d="M 336 303 L 356 303 L 356 313 L 336 313 L 336 303 Z Z" stroke-miterlimit="10"/></g><g transform="translate(10,-30) scale(1,1)"><rect fill="#ffffff" stroke="none" x="336" y="323" width="20" height="10"/></g><g transform="translate(10,-30) scale(1,1)"><path fill="none" stroke="#000000" d="M 336 323 L 356 323 L 356 333 L 336 333 L 336 323 Z Z" stroke-miterlimit="10"/></g><g transform="translate(10,-30) scale(1,1)"><g><path fill="none" stroke="none"/><text fill="#000000" stroke="none" font-family="Arial" font-size="13px" font-style="normal" font-weight="normal" text-decoration="none" x="366.5" y="313.5">«database»</text></g></g><g transform="translate(10,-30) scale(1,1)"><g><path fill="none" stroke="none"/><text fill="#000000" stroke="none" font-family="Arial" font-size="13px" font-style="normal" font-weight="bold" text-decoration="none" x="381.5" y="328.5">MySql</text></g></g><g transform="translate(10,-30) scale(1,1)"><path fill="none" stroke="#000000" d="M 107 175 L 98 85" stroke-miterlimit="10" stroke-dasharray="3"/></g><g transform="translate(10,-30) scale(1,1)"><path fill="none" stroke="#000000" d="M 103.19985066362001 94.69337676333951 L 98 85 L 94.8225972234496 95.53110210735656" stroke-miterlimit="10"/></g><g transform="translate(10,-30) scale(1,1)"><g><path fill="none" stroke="none"/><text fill="#000000" stroke="none" font-family="Arial" font-size="13px" font-style="normal" font-weight="normal" text-decoration="none" x="72.5361328125" y="137.5">+use</text></g></g><g transform="translate(10,-30) scale(1,1)"><path fill="none" stroke="#000000" d="M 138 175 L 253 85" stroke-miterlimit="10" stroke-dasharray="3"/></g><g transform="translate(10,-30) scale(1,1)"><path fill="none" stroke="#000000" d="M 247.59120329663608 94.57835675999175 L 253 85 L 242.40248215537775 87.94832419060612" stroke-miterlimit="10"/></g><g transform="translate(10,-30) scale(1,1)"><g><path fill="none" stroke="none"/><text fill="#000000" stroke="none" font-family="Arial" font-size="13px" font-style="normal" font-weight="normal" text-decoration="none" x="170.5361328125" y="124.5">+use</text></g></g><g transform="translate(10,-30) scale(1,1)"><path fill="#C0C0C0" stroke="none" d="M 885.84423828125 274.5 C 885.84423828125 268.1487248 890.99296308125 263 897.34423828125 263 C 903.69551348125 263 908.84423828125 268.1487248 908.84423828125 274.5 C 908.84423828125 280.8512752 903.69551348125 286 897.34423828125 286 C 890.99296308125 286 885.84423828125 280.8512752 885.84423828125 274.5 Z" opacity="0.2"/></g><g transform="translate(10,-30) scale(1,1)"><path fill="#ffffff" stroke="none" d="M 878.84423828125 267.5 C 878.84423828125 261.1487248 883.99296308125 256 890.34423828125 256 C 896.69551348125 256 901.84423828125 261.1487248 901.84423828125 267.5 C 901.84423828125 273.8512752 896.69551348125 279 890.34423828125 279 C 883.99296308125 279 878.84423828125 273.8512752 878.84423828125 267.5 Z"/></g><g transform="translate(10,-30) scale(1,1)"><path fill="none" stroke="#000000" d="M 878.84423828125 267.5 C 878.84423828125 261.1487248 883.99296308125 256 890.34423828125 256 C 896.69551348125 256 901.84423828125 261.1487248 901.84423828125 267.5 C 901.84423828125 273.8512752 896.69551348125 279 890.34423828125 279 C 883.99296308125 279 878.84423828125 273.8512752 878.84423828125 267.5 Z" stroke-miterlimit="10"/></g><g transform="translate(10,-30) scale(1,1)"><g><path fill="none" stroke="none"/><text fill="#000000" stroke="none" font-family="Arial" font-size="13px" font-style="normal" font-weight="bold" text-decoration="none" x="879.34423828125" y="298.5">http</text></g></g><g transform="translate(10,-30) scale(1,1)"><path fill="none" stroke="#000000" d="M 940 221 L 901.84423828125 261.077880859375" stroke-miterlimit="10"/></g><g transform="translate(10,-30) scale(1,1)"><path fill="#C0C0C0" stroke="none" d="M 621.84423828125 274.5 C 621.84423828125 268.1487248 626.99296308125 263 633.34423828125 263 C 639.69551348125 263 644.84423828125 268.1487248 644.84423828125 274.5 C 644.84423828125 280.8512752 639.69551348125 286 633.34423828125 286 C 626.99296308125 286 621.84423828125 280.8512752 621.84423828125 274.5 Z" opacity="0.2"/></g><g transform="translate(10,-30) scale(1,1)"><path fill="#ffffff" stroke="none" d="M 614.84423828125 267.5 C 614.84423828125 261.1487248 619.99296308125 256 626.34423828125 256 C 632.69551348125 256 637.84423828125 261.1487248 637.84423828125 267.5 C 637.84423828125 273.8512752 632.69551348125 279 626.34423828125 279 C 619.99296308125 279 614.84423828125 273.8512752 614.84423828125 267.5 Z"/></g><g transform="translate(10,-30) scale(1,1)"><path fill="none" stroke="#000000" d="M 614.84423828125 267.5 C 614.84423828125 261.1487248 619.99296308125 256 626.34423828125 256 C 632.69551348125 256 637.84423828125 261.1487248 637.84423828125 267.5 C 637.84423828125 273.8512752 632.69551348125 279 626.34423828125 279 C 619.99296308125 279 614.84423828125 273.8512752 614.84423828125 267.5 Z" stroke-miterlimit="10"/></g><g transform="translate(10,-30) scale(1,1)"><g><path fill="none" stroke="none"/><text fill="#000000" stroke="none" font-family="Arial" font-size="13px" font-style="normal" font-weight="bold" text-decoration="none" x="615.34423828125" y="298.5">http</text></g></g><g transform="translate(10,-30) scale(1,1)"><path fill="none" stroke="#000000" d="M 639 221 L 630.5833333333334 256" stroke-miterlimit="10"/></g><g transform="translate(10,-30) scale(1,1)"><path fill="none" stroke="#000000" d="M 577.2513423810797 247.6337254770179 A 11.5 11.5 0 0 1 580.7486576189203 270.3662745229821" stroke-miterlimit="10"/></g><g transform="translate(10,-30) scale(1,1)"><g><path fill="none" stroke="none"/><text fill="#000000" stroke="none" font-family="Arial" font-size="13px" font-style="normal" font-weight="bold" text-decoration="none" x="579.5" y="290.5"></text></g></g><g transform="translate(10,-30) scale(1,1)"><path fill="none" stroke="#000000" d="M 624 221 L 591 257.15384615384613" stroke-miterlimit="10"/></g><g transform="translate(10,-30) scale(1,1)"><path fill="#C0C0C0" stroke="none" d="M 561 274.5 C 561 268.1487248 566.1487248 263 572.5 263 C 578.8512752 263 584 268.1487248 584 274.5 C 584 280.8512752 578.8512752 286 572.5 286 C 566.1487248 286 561 280.8512752 561 274.5 Z" opacity="0.2"/></g><g transform="translate(10,-30) scale(1,1)"><path fill="#ffffff" stroke="none" d="M 554 267.5 C 554 261.1487248 559.1487248 256 565.5 256 C 571.8512752 256 577 261.1487248 577 267.5 C 577 273.8512752 571.8512752 279 565.5 279 C 559.1487248 279 554 273.8512752 554 267.5 Z"/></g><g transform="translate(10,-30) scale(1,1)"><path fill="none" stroke="#000000" d="M 554 267.5 C 554 261.1487248 559.1487248 256 565.5 256 C 571.8512752 256 577 261.1487248 577 267.5 C 577 273.8512752 571.8512752 279 565.5 279 C 559.1487248 279 554 273.8512752 554 267.5 Z" stroke-miterlimit="10"/></g><g transform="translate(10,-30) scale(1,1)"><g><path fill="none" stroke="none"/><text fill="#000000" stroke="none" font-family="Arial" font-size="13px" font-style="normal" font-weight="bold" text-decoration="none" x="548.5" y="298.5">JDBC</text></g></g><g transform="translate(10,-30) scale(1,1)"><path fill="none" stroke="#000000" d="M 445 319 L 560 320 L 564.0526315789474 279" stroke-miterlimit="10"/></g><g transform="translate(10,-30) scale(1,1)"><path fill="#C0C0C0" stroke="none" d="M 161 266.5 C 161 260.1487248 166.1487248 255 172.5 255 C 178.8512752 255 184 260.1487248 184 266.5 C 184 272.8512752 178.8512752 278 172.5 278 C 166.1487248 278 161 272.8512752 161 266.5 Z" opacity="0.2"/></g><g transform="translate(10,-30) scale(1,1)"><path fill="#ffffff" stroke="none" d="M 154 259.5 C 154 253.1487248 159.1487248 248 165.5 248 C 171.8512752 248 177 253.1487248 177 259.5 C 177 265.8512752 171.8512752 271 165.5 271 C 159.1487248 271 154 265.8512752 154 259.5 Z"/></g><g transform="translate(10,-30) scale(1,1)"><path fill="none" stroke="#000000" d="M 154 259.5 C 154 253.1487248 159.1487248 248 165.5 248 C 171.8512752 248 177 253.1487248 177 259.5 C 177 265.8512752 171.8512752 271 165.5 271 C 159.1487248 271 154 265.8512752 154 259.5 Z" stroke-miterlimit="10"/></g><g transform="translate(10,-30) scale(1,1)"><g><path fill="none" stroke="none"/><text fill="#000000" stroke="none" font-family="Arial" font-size="13px" font-style="normal" font-weight="bold" text-decoration="none" x="148.5" y="290.5">JDBC</text></g></g><g transform="translate(10,-30) scale(1,1)"><path fill="none" stroke="#000000" d="M 335 318 L 168 320 L 165.6315789473684 271" stroke-miterlimit="10"/></g><g transform="translate(10,-30) scale(1,1)"><path fill="none" stroke="#000000" d="M 151.36338069080637 261.9098579275809 A 11.5 11.5 0 0 1 158.63661930919363 240.0901420724191" stroke-miterlimit="10"/></g><g transform="translate(10,-30) scale(1,1)"><g><path fill="none" stroke="none"/><text fill="#000000" stroke="none" font-family="Arial" font-size="13px" font-style="normal" font-weight="bold" text-decoration="none" x="155.5" y="282.5"></text></g></g><g transform="translate(10,-30) scale(1,1)"><path fill="none" stroke="#000000" d="M 125 221 L 144 247.33333333333334" stroke-miterlimit="10"/></g><g transform="translate(10,-30) scale(1,1)"><rect fill="#C0C0C0" stroke="none" x="385" y="47" width="121.54150390625" height="44" opacity="0.2"/></g><g transform="translate(10,-30) scale(1,1)"><rect fill="#ffffff" stroke="none" x="378" y="40" width="121.54150390625" height="44"/></g><g transform="translate(10,-30) scale(1,1)"><path fill="none" stroke="#000000" d="M 378 40 L 499.54150390625 40 L 499.54150390625 84 L 378 84 L 378 40 Z Z" stroke-miterlimit="10"/></g><g transform="translate(10,-30) scale(1,1)"><rect fill="#ffffff" stroke="none" x="368" y="47" width="20" height="10"/></g><g transform="translate(10,-30) scale(1,1)"><path fill="none" stroke="#000000" d="M 368 47 L 388 47 L 388 57 L 368 57 L 368 47 Z Z" stroke-miterlimit="10"/></g><g transform="translate(10,-30) scale(1,1)"><rect fill="#ffffff" stroke="none" x="368" y="67" width="20" height="10"/></g><g transform="translate(10,-30) scale(1,1)"><path fill="none" stroke="#000000" d="M 368 67 L 388 67 L 388 77 L 368 77 L 368 67 Z Z" stroke-miterlimit="10"/></g><g transform="translate(10,-30) scale(1,1)"><g><path fill="none" stroke="none"/><text fill="#000000" stroke="none" font-family="Arial" font-size="13px" font-style="normal" font-weight="bold" text-decoration="none" x="397.770751953125" y="59.5">Bootsrap v3.3.2</text></g></g><g transform="translate(10,-30) scale(1,1)"><path fill="none" stroke="#000000" d="M 608 175 L 469 85" stroke-miterlimit="10" stroke-dasharray="3"/></g><g transform="translate(10,-30) scale(1,1)"><path fill="none" stroke="#000000" d="M 479.81851143319244 86.98992722728363 L 469 85 L 475.2427517602746 94.05693383323457" stroke-miterlimit="10"/></g><g transform="translate(10,-30) scale(1,1)"><g><path fill="none" stroke="none"/><text fill="#000000" stroke="none" font-family="Arial" font-size="13px" font-style="normal" font-weight="normal" text-decoration="none" x="514.5361328125" y="148.5">+use</text></g></g><g transform="translate(10,-30) scale(1,1)"><rect fill="#C0C0C0" stroke="none" x="545" y="47" width="269" height="44" opacity="0.2"/></g><g transform="translate(10,-30) scale(1,1)"><rect fill="#ffffff" stroke="none" x="538" y="40" width="269" height="44"/></g><g transform="translate(10,-30) scale(1,1)"><path fill="none" stroke="#000000" d="M 538 40 L 807 40 L 807 84 L 538 84 L 538 40 Z Z" stroke-miterlimit="10"/></g><g transform="translate(10,-30) scale(1,1)"><rect fill="#ffffff" stroke="none" x="528" y="47" width="20" height="10"/></g><g transform="translate(10,-30) scale(1,1)"><path fill="none" stroke="#000000" d="M 528 47 L 548 47 L 548 57 L 528 57 L 528 47 Z Z" stroke-miterlimit="10"/></g><g transform="translate(10,-30) scale(1,1)"><rect fill="#ffffff" stroke="none" x="528" y="67" width="20" height="10"/></g><g transform="translate(10,-30) scale(1,1)"><path fill="none" stroke="#000000" d="M 528 67 L 548 67 L 548 77 L 528 77 L 528 67 Z Z" stroke-miterlimit="10"/></g><g transform="translate(10,-30) scale(1,1)"><g><path fill="none" stroke="none"/><text fill="#000000" stroke="none" font-family="Arial" font-size="13px" font-style="normal" font-weight="normal" text-decoration="none" x="650.5" y="57.5">«artifact»</text></g></g><g transform="translate(10,-30) scale(1,1)"><g><path fill="none" stroke="none"/><text fill="#000000" stroke="none" font-family="Arial" font-size="13px" font-style="normal" font-weight="bold" text-decoration="none" x="559" y="72.5">spring-boot-starter-web 1.5.10.RELEASE</text></g></g><g transform="translate(10,-30) scale(1,1)"><path fill="none" stroke="#000000" d="M 648 175 L 663 85" stroke-miterlimit="10" stroke-dasharray="3"/></g><g transform="translate(10,-30) scale(1,1)"><path fill="none" stroke="#000000" d="M 665.4815092818907 95.7164411855751 L 663 85 L 657.1770238082953 94.33236027330922" stroke-miterlimit="10"/></g><g transform="translate(10,-30) scale(1,1)"><g><path fill="none" stroke="none"/><text fill="#000000" stroke="none" font-family="Arial" font-size="13px" font-style="normal" font-weight="normal" text-decoration="none" x="625.5361328125" y="133.5">+use</text></g></g><g transform="translate(10,-30) scale(1,1)"><rect fill="#C0C0C0" stroke="none" x="273" y="183" width="234" height="44" opacity="0.2"/></g><g transform="translate(10,-30) scale(1,1)"><rect fill="#ffffff" stroke="none" x="266" y="176" width="234" height="44"/></g><g transform="translate(10,-30) scale(1,1)"><path fill="none" stroke="#000000" d="M 266 176 L 500 176 L 500 220 L 266 220 L 266 176 Z Z" stroke-miterlimit="10"/></g><g transform="translate(10,-30) scale(1,1)"><rect fill="#ffffff" stroke="none" x="256" y="183" width="20" height="10"/></g><g transform="translate(10,-30) scale(1,1)"><path fill="none" stroke="#000000" d="M 256 183 L 276 183 L 276 193 L 256 193 L 256 183 Z Z" stroke-miterlimit="10"/></g><g transform="translate(10,-30) scale(1,1)"><rect fill="#ffffff" stroke="none" x="256" y="203" width="20" height="10"/></g><g transform="translate(10,-30) scale(1,1)"><path fill="none" stroke="#000000" d="M 256 203 L 276 203 L 276 213 L 256 213 L 256 203 Z Z" stroke-miterlimit="10"/></g><g transform="translate(10,-30) scale(1,1)"><g><path fill="none" stroke="none"/><text fill="#000000" stroke="none" font-family="Arial" font-size="13px" font-style="normal" font-weight="normal" text-decoration="none" x="374" y="193.5">«jar»</text></g></g><g transform="translate(10,-30) scale(1,1)"><g><path fill="none" stroke="none"/><text fill="#000000" stroke="none" font-family="Arial" font-size="13px" font-style="normal" font-weight="bold" text-decoration="none" x="283.5" y="208.5">Tweet Common V0.0.1-SNAPSHOT</text></g></g><g transform="translate(10,-30) scale(1,1)"><path fill="none" stroke="#000000" d="M 219 198 L 255 198" stroke-miterlimit="10" stroke-dasharray="3"/></g><g transform="translate(10,-30) scale(1,1)"><path fill="none" stroke="#000000" d="M 244.83732514237585 202.209517756016 L 255 198 L 244.83732514237585 193.790482243984" stroke-miterlimit="10"/></g><g transform="translate(10,-30) scale(1,1)"><g><path fill="none" stroke="none"/><text fill="#000000" stroke="none" font-family="Arial" font-size="13px" font-style="normal" font-weight="normal" text-decoration="none" x="222.5" y="189.5">+use</text></g></g><g transform="translate(10,-30) scale(1,1)"><path fill="none" stroke="#000000" d="M 535 198 L 501 198" stroke-miterlimit="10" stroke-dasharray="3"/></g><g transform="translate(10,-30) scale(1,1)"><path fill="none" stroke="#000000" d="M 511.16267485762415 193.790482243984 L 501 198 L 511.16267485762415 202.209517756016" stroke-miterlimit="10"/></g><g transform="translate(10,-30) scale(1,1)"><g><path fill="none" stroke="none"/><text fill="#000000" stroke="none" font-family="Arial" font-size="13px" font-style="normal" font-weight="normal" text-decoration="none" x="502.5" y="219.5">+use</text></g></g></g></svg>