<svg version="1.1" xmlns="http://www.w3.org/2000/svg" xmlns:xlink="http://www.w3.org/1999/xlink" width="684" height="332"><defs/><g><g transform="translate(-54,-142) scale(1,1)"><rect fill="#C0C0C0" stroke="none" x="81" y="159" width="654" height="312" opacity="0.2"/></g><g transform="translate(-54,-142) scale(1,1)"><rect fill="#ffffff" stroke="none" x="74" y="152" width="654" height="312"/></g><g transform="translate(-54,-142) scale(1,1)"><path fill="none" stroke="#000000" d="M 74 152 L 728 152 L 728 464 L 74 464 L 74 152 Z Z" stroke-miterlimit="10"/></g><g transform="translate(-54,-142) scale(1,1)"><rect fill="#ffffff" stroke="none" x="64" y="159" width="20" height="10"/></g><g transform="translate(-54,-142) scale(1,1)"><path fill="none" stroke="#000000" d="M 64 159 L 84 159 L 84 169 L 64 169 L 64 159 Z Z" stroke-miterlimit="10"/></g><g transform="translate(-54,-142) scale(1,1)"><rect fill="#ffffff" stroke="none" x="64" y="179" width="20" height="10"/></g><g transform="translate(-54,-142) scale(1,1)"><path fill="none" stroke="#000000" d="M 64 179 L 84 179 L 84 189 L 64 189 L 64 179 Z Z" stroke-miterlimit="10"/></g><g transform="translate(-54,-142) scale(1,1)"><g><path fill="none" stroke="none"/><text fill="#000000" stroke="none" font-family="Arial" font-size="13px" font-style="normal" font-weight="bold" text-decoration="none" x="406" y="171.5"></text><path fill="none" stroke="#000000" d="M 406 171.5 L 406 171.5" stroke-miterlimit="10"/></g></g><g transform="translate(-54,-142) scale(1,1)"><rect fill="#C0C0C0" stroke="none" x="351" y="335" width="103.64990234375" height="57" opacity="0.2"/></g><g transform="translate(-54,-142) scale(1,1)"><rect fill="#ffffff" stroke="none" x="344" y="328" width="103.64990234375" height="57"/></g><g transform="translate(-54,-142) scale(1,1)"><path fill="none" stroke="#000000" d="M 344 328 L 447.64990234375 328 L 447.64990234375 385 L 344 385 L 344 328 Z Z" stroke-miterlimit="10"/></g><g transform="translate(-54,-142) scale(1,1)"><path fill="none" stroke="#000000" d="M 344 353 L 447.64990234375 353" stroke-miterlimit="10"/></g><g transform="translate(-54,-142) scale(1,1)"><path fill="none" stroke="#000000" d="M 344 363 L 447.64990234375 363" stroke-miterlimit="10"/></g><g transform="translate(-54,-142) scale(1,1)"><g><path fill="none" stroke="none"/><text fill="#000000" stroke="none" font-family="Arial" font-size="13px" font-style="normal" font-weight="bold" text-decoration="none" x="354.324951171875" y="347.5">Tweet Service</text></g></g><g transform="translate(-54,-142) scale(1,1)"><g><path fill="none" stroke="none"/><text fill="#000000" stroke="none" font-family="Arial" font-size="13px" font-style="normal" font-weight="normal" text-decoration="none" x="349" y="380.5">+findAllTweet()</text></g></g><g transform="translate(-54,-142) scale(1,1)"><path fill="#ffffff" stroke="none" d="M 172.00146484375 331.5 C 172.00146484375 323.4228348 178.54929964375 316.875 186.62646484375 316.875 C 194.70363004375 316.875 201.25146484375 323.4228348 201.25146484375 331.5 C 201.25146484375 339.5771652 194.70363004375 346.125 186.62646484375 346.125 C 178.54929964375 346.125 172.00146484375 339.5771652 172.00146484375 331.5 Z"/></g><g transform="translate(-54,-142) scale(1,1)"><path fill="none" stroke="#000000" d="M 172.00146484375 331.5 C 172.00146484375 323.4228348 178.54929964375 316.875 186.62646484375 316.875 C 194.70363004375 316.875 201.25146484375 323.4228348 201.25146484375 331.5 C 201.25146484375 339.5771652 194.70363004375 346.125 186.62646484375 346.125 C 178.54929964375 346.125 172.00146484375 339.5771652 172.00146484375 331.5 Z" stroke-miterlimit="10"/></g><g transform="translate(-54,-142) scale(1,1)"><path fill="none" stroke="#000000" d="M 186.62646484375 316.875 L 191.50146484375 312" stroke-miterlimit="10"/></g><g transform="translate(-54,-142) scale(1,1)"><path fill="none" stroke="#000000" d="M 186.62646484375 316.875 L 191.50146484375 321.75" stroke-miterlimit="10"/></g><g transform="translate(-54,-142) scale(1,1)"><path fill="none" stroke="#000000" d="M 128 376 L 245.2529296875 376" stroke-miterlimit="10"/></g><g transform="translate(-54,-142) scale(1,1)"><g><path fill="none" stroke="none"/><text fill="#000000" stroke="none" font-family="Arial" font-size="13px" font-style="normal" font-weight="bold" text-decoration="none" x="141.62646484375" y="370.5">TweetController</text></g></g><g transform="translate(-54,-142) scale(1,1)"><g><path fill="none" stroke="none"/><text fill="#000000" stroke="none" font-family="Arial" font-size="13px" font-style="normal" font-weight="normal" text-decoration="none" x="133" y="393.5">+listAllTweets()</text></g></g><g transform="translate(-54,-142) scale(1,1)"><path fill="#ffffff" stroke="none" d="M 175.744091796875 195.5 C 175.744091796875 186.88435712 182.728448916875 179.9 191.344091796875 179.9 C 199.959734676875 179.9 206.944091796875 186.88435712 206.944091796875 195.5 C 206.944091796875 204.11564288 199.959734676875 211.1 191.344091796875 211.1 C 182.728448916875 211.1 175.744091796875 204.11564288 175.744091796875 195.5 Z"/></g><g transform="translate(-54,-142) scale(1,1)"><path fill="none" stroke="#000000" d="M 175.744091796875 195.5 C 175.744091796875 186.88435712 182.728448916875 179.9 191.344091796875 179.9 C 199.959734676875 179.9 206.944091796875 186.88435712 206.944091796875 195.5 C 206.944091796875 204.11564288 199.959734676875 211.1 191.344091796875 211.1 C 182.728448916875 211.1 175.744091796875 204.11564288 175.744091796875 195.5 Z" stroke-miterlimit="10"/></g><g transform="translate(-54,-142) scale(1,1)"><path fill="none" stroke="#000000" d="M 167.944091796875 179.9 L 167.944091796875 211.1" stroke-miterlimit="10"/></g><g transform="translate(-54,-142) scale(1,1)"><path fill="none" stroke="#000000" d="M 167.944091796875 195.5 L 175.744091796875 195.5" stroke-miterlimit="10"/></g><g transform="translate(-54,-142) scale(1,1)"><path fill="none" stroke="#000000" d="M 136 240 L 238.88818359375 240" stroke-miterlimit="10"/></g><g transform="translate(-54,-142) scale(1,1)"><g><path fill="none" stroke="none"/><text fill="#000000" stroke="none" font-family="Arial" font-size="13px" font-style="normal" font-weight="bold" text-decoration="none" x="156.444091796875" y="234.5">Boundary1</text></g></g><g transform="translate(-54,-142) scale(1,1)"><g><path fill="none" stroke="none"/><text fill="#000000" stroke="none" font-family="Arial" font-size="13px" font-style="normal" font-weight="normal" text-decoration="none" x="141" y="257.5">+listOfTweets()</text></g></g><g transform="translate(-54,-142) scale(1,1)"><path fill="#ffffff" stroke="none" d="M 627.59580078125 275.5 C 627.59580078125 266.88435712 634.58015790125 259.9 643.19580078125 259.9 C 651.81144366125 259.9 658.79580078125 266.88435712 658.79580078125 275.5 C 658.79580078125 284.11564288 651.81144366125 291.1 643.19580078125 291.1 C 634.58015790125 291.1 627.59580078125 284.11564288 627.59580078125 275.5 Z"/></g><g transform="translate(-54,-142) scale(1,1)"><path fill="none" stroke="#000000" d="M 627.59580078125 275.5 C 627.59580078125 266.88435712 634.58015790125 259.9 643.19580078125 259.9 C 651.81144366125 259.9 658.79580078125 266.88435712 658.79580078125 275.5 C 658.79580078125 284.11564288 651.81144366125 291.1 643.19580078125 291.1 C 634.58015790125 291.1 627.59580078125 284.11564288 627.59580078125 275.5 Z" stroke-miterlimit="10"/></g><g transform="translate(-54,-142) scale(1,1)"><path fill="none" stroke="#000000" d="M 627.59580078125 291.1 L 658.79580078125 291.1" stroke-miterlimit="10"/></g><g transform="translate(-54,-142) scale(1,1)"><path fill="none" stroke="#000000" d="M 576 320 L 710.3916015625 320" stroke-miterlimit="10"/></g><g transform="translate(-54,-142) scale(1,1)"><path fill="none" stroke="#000000" d="M 576 433 L 710.3916015625 433" stroke-miterlimit="10"/></g><g transform="translate(-54,-142) scale(1,1)"><g><path fill="none" stroke="none"/><text fill="#000000" stroke="none" font-family="Arial" font-size="13px" font-style="normal" font-weight="bold" text-decoration="none" x="625.69580078125" y="314.5">Tweet</text></g></g><g transform="translate(-54,-142) scale(1,1)"><g><path fill="none" stroke="none"/><text fill="#000000" stroke="none" font-family="Arial" font-size="13px" font-style="normal" font-weight="normal" text-decoration="none" x="581" y="337.5">+id: int</text></g></g><g transform="translate(-54,-142) scale(1,1)"><g><path fill="none" stroke="none"/><text fill="#000000" stroke="none" font-family="Arial" font-size="13px" font-style="normal" font-weight="normal" text-decoration="none" x="581" y="352.5">+id_tweet: float</text></g></g><g transform="translate(-54,-142) scale(1,1)"><g><path fill="none" stroke="none"/><text fill="#000000" stroke="none" font-family="Arial" font-size="13px" font-style="normal" font-weight="normal" text-decoration="none" x="581" y="367.5">+follewersCount: int</text></g></g><g transform="translate(-54,-142) scale(1,1)"><g><path fill="none" stroke="none"/><text fill="#000000" stroke="none" font-family="Arial" font-size="13px" font-style="normal" font-weight="normal" text-decoration="none" x="581" y="382.5">+email: string</text></g></g><g transform="translate(-54,-142) scale(1,1)"><g><path fill="none" stroke="none"/><text fill="#000000" stroke="none" font-family="Arial" font-size="13px" font-style="normal" font-weight="normal" text-decoration="none" x="581" y="397.5">+tag: string</text></g></g><g transform="translate(-54,-142) scale(1,1)"><g><path fill="none" stroke="none"/><text fill="#000000" stroke="none" font-family="Arial" font-size="13px" font-style="normal" font-weight="normal" text-decoration="none" x="581" y="412.5">+auteur: string</text></g></g><g transform="translate(-54,-142) scale(1,1)"><g><path fill="none" stroke="none"/><text fill="#000000" stroke="none" font-family="Arial" font-size="13px" font-style="normal" font-weight="normal" text-decoration="none" x="581" y="427.5">+libelle: Text</text></g></g><g transform="translate(-54,-142) scale(1,1)"><g><path fill="none" stroke="none"/><text fill="#000000" stroke="none" font-family="Arial" font-size="13px" font-style="normal" font-weight="normal" text-decoration="none" x="581" y="450.5">+getTweets()</text></g></g><g transform="translate(-54,-142) scale(1,1)"><path fill="none" stroke="#000000" d="M 246 355 L 343 356" stroke-miterlimit="10"/></g><g transform="translate(-54,-142) scale(1,1)"><g><path fill="none" stroke="none"/><text fill="#000000" stroke="none" font-family="Arial" font-size="13px" font-style="normal" font-weight="normal" text-decoration="none" x="268.855712890625" y="346.5">+service</text></g></g><g transform="translate(-54,-142) scale(1,1)"><path fill="none" stroke="#000000" d="M 449 356 L 575 356" stroke-miterlimit="10"/></g><g transform="translate(-54,-142) scale(1,1)"><g><path fill="none" stroke="none"/><text fill="#000000" stroke="none" font-family="Arial" font-size="13px" font-style="normal" font-weight="normal" text-decoration="none" x="491.10400390625" y="347.5">+utilise</text></g></g><g transform="translate(-54,-142) scale(1,1)"><path fill="none" stroke="#000000" d="M 187 264 L 186 311" stroke-miterlimit="10"/></g></g></svg>