<svg version="1.1" xmlns="http://www.w3.org/2000/svg" xmlns:xlink="http://www.w3.org/1999/xlink" width="1116" height="884"><defs/><g><g transform="translate(2,10) scale(1,1)"><path fill="#C0C0C0" stroke="none" d="M 511 473 L 1100 473 L 1100 870 L 511 870" opacity="0.2"/></g><g transform="translate(2,10) scale(1,1)"><path fill="#C0C0C0" stroke="none" d="M 511 473 L 521 463 L 1110 463 L 1100 473" opacity="0.2"/></g><g transform="translate(2,10) scale(1,1)"><path fill="#C0C0C0" stroke="none" d="M 1110 463 L 1100 473 L 1100 870 L 1110 860" opacity="0.2"/></g><g transform="translate(2,10) scale(1,1)"><path fill="#ffffff" stroke="none" d="M 504 466 L 1093 466 L 1093 863 L 504 863"/></g><g transform="translate(2,10) scale(1,1)"><path fill="#ffffff" stroke="none" d="M 504 466 L 514 456 L 1103 456 L 1093 466"/></g><g transform="translate(2,10) scale(1,1)"><path fill="#ffffff" stroke="none" d="M 1103 456 L 1093 466 L 1093 863 L 1103 853"/></g><g transform="translate(2,10) scale(1,1)"><path fill="none" stroke="#000000" d="M 504 466 L 1093 466 L 1093 863 L 504 863 L 504 466" stroke-miterlimit="10"/></g><g transform="translate(2,10) scale(1,1)"><path fill="none" stroke="#000000" d="M 504 466 L 514 456 L 1103 456 L 1093 466 L 504 466" stroke-miterlimit="10"/></g><g transform="translate(2,10) scale(1,1)"><path fill="none" stroke="#000000" d="M 1103 456 L 1093 466 L 1093 863 L 1103 853 L 1103 456" stroke-miterlimit="10"/></g><g transform="translate(2,10) scale(1,1)"><g><path fill="none" stroke="none"/><text fill="#000000" stroke="none" font-family="Arial" font-size="13px" font-style="normal" font-weight="bold" text-decoration="none" x="736.853271484375" y="485.5">Authentication Server</text></g></g><g transform="translate(2,10) scale(1,1)"><path fill="#C0C0C0" stroke="none" d="M 335 17 L 988 17 L 988 342 L 335 342" opacity="0.2"/></g><g transform="translate(2,10) scale(1,1)"><path fill="#C0C0C0" stroke="none" d="M 335 17 L 345 7 L 998 7 L 988 17" opacity="0.2"/></g><g transform="translate(2,10) scale(1,1)"><path fill="#C0C0C0" stroke="none" d="M 998 7 L 988 17 L 988 342 L 998 332" opacity="0.2"/></g><g transform="translate(2,10) scale(1,1)"><path fill="#ffffff" stroke="none" d="M 328 10 L 981 10 L 981 335 L 328 335"/></g><g transform="translate(2,10) scale(1,1)"><path fill="#ffffff" stroke="none" d="M 328 10 L 338 0 L 991 0 L 981 10"/></g><g transform="translate(2,10) scale(1,1)"><path fill="#ffffff" stroke="none" d="M 991 0 L 981 10 L 981 335 L 991 325"/></g><g transform="translate(2,10) scale(1,1)"><path fill="none" stroke="#000000" d="M 328 10 L 981 10 L 981 335 L 328 335 L 328 10" stroke-miterlimit="10"/></g><g transform="translate(2,10) scale(1,1)"><path fill="none" stroke="#000000" d="M 328 10 L 338 0 L 991 0 L 981 10 L 328 10" stroke-miterlimit="10"/></g><g transform="translate(2,10) scale(1,1)"><path fill="none" stroke="#000000" d="M 991 0 L 981 10 L 981 335 L 991 325 L 991 0" stroke-miterlimit="10"/></g><g transform="translate(2,10) scale(1,1)"><g><path fill="none" stroke="none"/><text fill="#000000" stroke="none" font-family="Arial" font-size="13px" font-style="normal" font-weight="normal" text-decoration="none" x="632.23095703125" y="27.5">«Node»</text></g></g><g transform="translate(2,10) scale(1,1)"><g><path fill="none" stroke="none"/><text fill="#000000" stroke="none" font-family="Arial" font-size="13px" font-style="normal" font-weight="bold" text-decoration="none" x="617.4345703125" y="42.5">Tweet server</text></g></g><g transform="translate(2,10) scale(1,1)"><path fill="#C0C0C0" stroke="none" d="M 351 73 L 956 73 L 956 326 L 351 326" opacity="0.2"/></g><g transform="translate(2,10) scale(1,1)"><path fill="#C0C0C0" stroke="none" d="M 351 73 L 361 63 L 966 63 L 956 73" opacity="0.2"/></g><g transform="translate(2,10) scale(1,1)"><path fill="#C0C0C0" stroke="none" d="M 966 63 L 956 73 L 956 326 L 966 316" opacity="0.2"/></g><g transform="translate(2,10) scale(1,1)"><path fill="#ffffff" stroke="none" d="M 344 66 L 949 66 L 949 319 L 344 319"/></g><g transform="translate(2,10) scale(1,1)"><path fill="#ffffff" stroke="none" d="M 344 66 L 354 56 L 959 56 L 949 66"/></g><g transform="translate(2,10) scale(1,1)"><path fill="#ffffff" stroke="none" d="M 959 56 L 949 66 L 949 319 L 959 309"/></g><g transform="translate(2,10) scale(1,1)"><path fill="none" stroke="#000000" d="M 344 66 L 949 66 L 949 319 L 344 319 L 344 66" stroke-miterlimit="10"/></g><g transform="translate(2,10) scale(1,1)"><path fill="none" stroke="#000000" d="M 344 66 L 354 56 L 959 56 L 949 66 L 344 66" stroke-miterlimit="10"/></g><g transform="translate(2,10) scale(1,1)"><path fill="none" stroke="#000000" d="M 959 56 L 949 66 L 949 319 L 959 309 L 959 56" stroke-miterlimit="10"/></g><g transform="translate(2,10) scale(1,1)"><g><path fill="none" stroke="none"/><text fill="#000000" stroke="none" font-family="Arial" font-size="13px" font-style="normal" font-weight="bold" text-decoration="none" x="594.622314453125" y="85.5">Tomcat server 9.0</text><path fill="none" stroke="#000000" d="M 702.28173828125 85.5 L 591.71826171875 85.5" stroke-miterlimit="10"/></g></g><g transform="translate(2,10) scale(1,1)"><path fill="#C0C0C0" stroke="none" d="M 519 537 L 1076 537 L 1076 838 L 519 838" opacity="0.2"/></g><g transform="translate(2,10) scale(1,1)"><path fill="#C0C0C0" stroke="none" d="M 519 537 L 529 527 L 1086 527 L 1076 537" opacity="0.2"/></g><g transform="translate(2,10) scale(1,1)"><path fill="#C0C0C0" stroke="none" d="M 1086 527 L 1076 537 L 1076 838 L 1086 828" opacity="0.2"/></g><g transform="translate(2,10) scale(1,1)"><path fill="#ffffff" stroke="none" d="M 512 530 L 1069 530 L 1069 831 L 512 831"/></g><g transform="translate(2,10) scale(1,1)"><path fill="#ffffff" stroke="none" d="M 512 530 L 522 520 L 1079 520 L 1069 530"/></g><g transform="translate(2,10) scale(1,1)"><path fill="#ffffff" stroke="none" d="M 1079 520 L 1069 530 L 1069 831 L 1079 821"/></g><g transform="translate(2,10) scale(1,1)"><path fill="none" stroke="#000000" d="M 512 530 L 1069 530 L 1069 831 L 512 831 L 512 530" stroke-miterlimit="10"/></g><g transform="translate(2,10) scale(1,1)"><path fill="none" stroke="#000000" d="M 512 530 L 522 520 L 1079 520 L 1069 530 L 512 530" stroke-miterlimit="10"/></g><g transform="translate(2,10) scale(1,1)"><path fill="none" stroke="#000000" d="M 1079 520 L 1069 530 L 1069 831 L 1079 821 L 1079 520" stroke-miterlimit="10"/></g><g transform="translate(2,10) scale(1,1)"><g><path fill="none" stroke="none"/><text fill="#000000" stroke="none" font-family="Arial" font-size="13px" font-style="normal" font-weight="bold" text-decoration="none" x="738.622314453125" y="549.5">Tomcat server 9.0</text><path fill="none" stroke="#000000" d="M 846.28173828125 549.5 L 735.71826171875 549.5" stroke-miterlimit="10"/></g></g><g transform="translate(2,10) scale(1,1)"><path fill="#C0C0C0" stroke="none" d="M 23 385 L 428 385 L 428 798 L 23 798" opacity="0.2"/></g><g transform="translate(2,10) scale(1,1)"><path fill="#C0C0C0" stroke="none" d="M 23 385 L 33 375 L 438 375 L 428 385" opacity="0.2"/></g><g transform="translate(2,10) scale(1,1)"><path fill="#C0C0C0" stroke="none" d="M 438 375 L 428 385 L 428 798 L 438 788" opacity="0.2"/></g><g transform="translate(2,10) scale(1,1)"><path fill="#ffffff" stroke="none" d="M 16 378 L 421 378 L 421 791 L 16 791"/></g><g transform="translate(2,10) scale(1,1)"><path fill="#ffffff" stroke="none" d="M 16 378 L 26 368 L 431 368 L 421 378"/></g><g transform="translate(2,10) scale(1,1)"><path fill="#ffffff" stroke="none" d="M 431 368 L 421 378 L 421 791 L 431 781"/></g><g transform="translate(2,10) scale(1,1)"><path fill="none" stroke="#000000" d="M 16 378 L 421 378 L 421 791 L 16 791 L 16 378" stroke-miterlimit="10"/></g><g transform="translate(2,10) scale(1,1)"><path fill="none" stroke="#000000" d="M 16 378 L 26 368 L 431 368 L 421 378 L 16 378" stroke-miterlimit="10"/></g><g transform="translate(2,10) scale(1,1)"><path fill="none" stroke="#000000" d="M 431 368 L 421 378 L 421 791 L 431 781 L 431 368" stroke-miterlimit="10"/></g><g transform="translate(2,10) scale(1,1)"><g><path fill="none" stroke="none"/><text fill="#000000" stroke="none" font-family="Arial" font-size="13px" font-style="normal" font-weight="bold" text-decoration="none" x="159.760498046875" y="397.5">tweet-scraper server</text></g></g><g transform="translate(2,10) scale(1,1)"><path fill="#C0C0C0" stroke="none" d="M 15 73 L 236 73 L 236 242 L 15 242" opacity="0.2"/></g><g transform="translate(2,10) scale(1,1)"><path fill="#C0C0C0" stroke="none" d="M 15 73 L 25 63 L 246 63 L 236 73" opacity="0.2"/></g><g transform="translate(2,10) scale(1,1)"><path fill="#C0C0C0" stroke="none" d="M 246 63 L 236 73 L 236 242 L 246 232" opacity="0.2"/></g><g transform="translate(2,10) scale(1,1)"><path fill="#ffffff" stroke="none" d="M 8 66 L 229 66 L 229 235 L 8 235"/></g><g transform="translate(2,10) scale(1,1)"><path fill="#ffffff" stroke="none" d="M 8 66 L 18 56 L 239 56 L 229 66"/></g><g transform="translate(2,10) scale(1,1)"><path fill="#ffffff" stroke="none" d="M 239 56 L 229 66 L 229 235 L 239 225"/></g><g transform="translate(2,10) scale(1,1)"><path fill="none" stroke="#000000" d="M 8 66 L 229 66 L 229 235 L 8 235 L 8 66" stroke-miterlimit="10"/></g><g transform="translate(2,10) scale(1,1)"><path fill="none" stroke="#000000" d="M 8 66 L 18 56 L 239 56 L 229 66 L 8 66" stroke-miterlimit="10"/></g><g transform="translate(2,10) scale(1,1)"><path fill="none" stroke="#000000" d="M 239 56 L 229 66 L 229 235 L 239 225 L 239 56" stroke-miterlimit="10"/></g><g transform="translate(2,10) scale(1,1)"><g><path fill="none" stroke="none"/><text fill="#000000" stroke="none" font-family="Arial" font-size="13px" font-style="normal" font-weight="normal" text-decoration="none" x="96.23095703125" y="83.5">«Node»</text></g></g><g transform="translate(2,10) scale(1,1)"><g><path fill="none" stroke="none"/><text fill="#000000" stroke="none" font-family="Arial" font-size="13px" font-style="normal" font-weight="bold" text-decoration="none" x="71.31005859375" y="98.5">Database server</text></g></g><g transform="translate(2,10) scale(1,1)"><path fill="#C0C0C0" stroke="none" d="M 583 385 L 812 385 L 812 418 L 583 418" opacity="0.2"/></g><g transform="translate(2,10) scale(1,1)"><path fill="#C0C0C0" stroke="none" d="M 583 385 L 593 375 L 822 375 L 812 385" opacity="0.2"/></g><g transform="translate(2,10) scale(1,1)"><path fill="#C0C0C0" stroke="none" d="M 822 375 L 812 385 L 812 418 L 822 408" opacity="0.2"/></g><g transform="translate(2,10) scale(1,1)"><path fill="#ffffff" stroke="none" d="M 576 378 L 805 378 L 805 411 L 576 411"/></g><g transform="translate(2,10) scale(1,1)"><path fill="#ffffff" stroke="none" d="M 576 378 L 586 368 L 815 368 L 805 378"/></g><g transform="translate(2,10) scale(1,1)"><path fill="#ffffff" stroke="none" d="M 815 368 L 805 378 L 805 411 L 815 401"/></g><g transform="translate(2,10) scale(1,1)"><path fill="none" stroke="#000000" d="M 576 378 L 805 378 L 805 411 L 576 411 L 576 378" stroke-miterlimit="10"/></g><g transform="translate(2,10) scale(1,1)"><path fill="none" stroke="#000000" d="M 576 378 L 586 368 L 815 368 L 805 378 L 576 378" stroke-miterlimit="10"/></g><g transform="translate(2,10) scale(1,1)"><path fill="none" stroke="#000000" d="M 815 368 L 805 378 L 805 411 L 815 401 L 815 368" stroke-miterlimit="10"/></g><g transform="translate(2,10) scale(1,1)"><g><path fill="none" stroke="none"/><text fill="#000000" stroke="none" font-family="Arial" font-size="13px" font-style="normal" font-weight="bold" text-decoration="none" x="654.15185546875" y="397.5">web browser</text></g></g><g transform="translate(2,10) scale(1,1)"><rect fill="#C0C0C0" stroke="none" x="809" y="255" width="122.91259765625" height="44" opacity="0.2"/></g><g transform="translate(2,10) scale(1,1)"><rect fill="#ffffff" stroke="none" x="802" y="248" width="122.91259765625" height="44"/></g><g transform="translate(2,10) scale(1,1)"><path fill="none" stroke="#000000" d="M 802 248 L 924.91259765625 248 L 924.91259765625 292 L 802 292 L 802 248 Z Z" stroke-miterlimit="10"/></g><g transform="translate(2,10) scale(1,1)"><rect fill="#ffffff" stroke="none" x="792" y="255" width="20" height="10"/></g><g transform="translate(2,10) scale(1,1)"><path fill="none" stroke="#000000" d="M 792 255 L 812 255 L 812 265 L 792 265 L 792 255 Z Z" stroke-miterlimit="10"/></g><g transform="translate(2,10) scale(1,1)"><rect fill="#ffffff" stroke="none" x="792" y="275" width="20" height="10"/></g><g transform="translate(2,10) scale(1,1)"><path fill="none" stroke="#000000" d="M 792 275 L 812 275 L 812 285 L 792 285 L 792 275 Z Z" stroke-miterlimit="10"/></g><g transform="translate(2,10) scale(1,1)"><g><path fill="none" stroke="none"/><text fill="#000000" stroke="none" font-family="Arial" font-size="13px" font-style="normal" font-weight="bold" text-decoration="none" x="821.84228515625" y="267.5">Bootsrap V3.3.2</text></g></g><g transform="translate(2,10) scale(1,1)"><rect fill="#C0C0C0" stroke="none" x="745" y="103" width="208.29345703125" height="44" opacity="0.2"/></g><g transform="translate(2,10) scale(1,1)"><rect fill="#ffffff" stroke="none" x="738" y="96" width="208.29345703125" height="44"/></g><g transform="translate(2,10) scale(1,1)"><path fill="none" stroke="#000000" d="M 738 96 L 946.29345703125 96 L 946.29345703125 140 L 738 140 L 738 96 Z Z" stroke-miterlimit="10"/></g><g transform="translate(2,10) scale(1,1)"><rect fill="#ffffff" stroke="none" x="728" y="103" width="20" height="10"/></g><g transform="translate(2,10) scale(1,1)"><path fill="none" stroke="#000000" d="M 728 103 L 748 103 L 748 113 L 728 113 L 728 103 Z Z" stroke-miterlimit="10"/></g><g transform="translate(2,10) scale(1,1)"><rect fill="#ffffff" stroke="none" x="728" y="123" width="20" height="10"/></g><g transform="translate(2,10) scale(1,1)"><path fill="none" stroke="#000000" d="M 728 123 L 748 123 L 748 133 L 728 133 L 728 123 Z Z" stroke-miterlimit="10"/></g><g transform="translate(2,10) scale(1,1)"><g><path fill="none" stroke="none"/><text fill="#000000" stroke="none" font-family="Arial" font-size="13px" font-style="normal" font-weight="normal" text-decoration="none" x="832.693115234375" y="113.5">«jar»</text></g></g><g transform="translate(2,10) scale(1,1)"><g><path fill="none" stroke="none"/><text fill="#000000" stroke="none" font-family="Arial" font-size="13px" font-style="normal" font-weight="bold" text-decoration="none" x="755.759521484375" y="128.5">tweet-service V1.0-SNAPSHOT</text></g></g><g transform="translate(2,10) scale(1,1)"><rect fill="#C0C0C0" stroke="none" x="97" y="615" width="210.45166015625" height="44" opacity="0.2"/></g><g transform="translate(2,10) scale(1,1)"><rect fill="#ffffff" stroke="none" x="90" y="608" width="210.45166015625" height="44"/></g><g transform="translate(2,10) scale(1,1)"><path fill="none" stroke="#000000" d="M 90 608 L 300.45166015625 608 L 300.45166015625 652 L 90 652 L 90 608 Z Z" stroke-miterlimit="10"/></g><g transform="translate(2,10) scale(1,1)"><rect fill="#ffffff" stroke="none" x="80" y="615" width="20" height="10"/></g><g transform="translate(2,10) scale(1,1)"><path fill="none" stroke="#000000" d="M 80 615 L 100 615 L 100 625 L 80 625 L 80 615 Z Z" stroke-miterlimit="10"/></g><g transform="translate(2,10) scale(1,1)"><rect fill="#ffffff" stroke="none" x="80" y="635" width="20" height="10"/></g><g transform="translate(2,10) scale(1,1)"><path fill="none" stroke="#000000" d="M 80 635 L 100 635 L 100 645 L 80 645 L 80 635 Z Z" stroke-miterlimit="10"/></g><g transform="translate(2,10) scale(1,1)"><g><path fill="none" stroke="none"/><text fill="#000000" stroke="none" font-family="Arial" font-size="13px" font-style="normal" font-weight="normal" text-decoration="none" x="185.772216796875" y="625.5">«jar»</text></g></g><g transform="translate(2,10) scale(1,1)"><g><path fill="none" stroke="none"/><text fill="#000000" stroke="none" font-family="Arial" font-size="13px" font-style="normal" font-weight="bold" text-decoration="none" x="107.753173828125" y="640.5">tweet-scraper V1.0-SNAPSHOT</text></g></g><g transform="translate(2,10) scale(1,1)"><rect fill="#C0C0C0" stroke="none" x="385" y="183" width="273" height="44" opacity="0.2"/></g><g transform="translate(2,10) scale(1,1)"><rect fill="#ffffff" stroke="none" x="378" y="176" width="273" height="44"/></g><g transform="translate(2,10) scale(1,1)"><path fill="none" stroke="#000000" d="M 378 176 L 651 176 L 651 220 L 378 220 L 378 176 Z Z" stroke-miterlimit="10"/></g><g transform="translate(2,10) scale(1,1)"><rect fill="#ffffff" stroke="none" x="368" y="183" width="20" height="10"/></g><g transform="translate(2,10) scale(1,1)"><path fill="none" stroke="#000000" d="M 368 183 L 388 183 L 388 193 L 368 193 L 368 183 Z Z" stroke-miterlimit="10"/></g><g transform="translate(2,10) scale(1,1)"><rect fill="#ffffff" stroke="none" x="368" y="203" width="20" height="10"/></g><g transform="translate(2,10) scale(1,1)"><path fill="none" stroke="#000000" d="M 368 203 L 388 203 L 388 213 L 368 213 L 368 203 Z Z" stroke-miterlimit="10"/></g><g transform="translate(2,10) scale(1,1)"><g><path fill="none" stroke="none"/><text fill="#000000" stroke="none" font-family="Arial" font-size="13px" font-style="normal" font-weight="bold" text-decoration="none" x="398.82470703125" y="195.5">Spring Boot Start Web V1.5.10.RELEASE</text></g></g><g transform="translate(2,10) scale(1,1)"><rect fill="#C0C0C0" stroke="none" x="225" y="503" width="183.0361328125" height="44" opacity="0.2"/></g><g transform="translate(2,10) scale(1,1)"><rect fill="#ffffff" stroke="none" x="218" y="496" width="183.0361328125" height="44"/></g><g transform="translate(2,10) scale(1,1)"><path fill="none" stroke="#000000" d="M 218 496 L 401.0361328125 496 L 401.0361328125 540 L 218 540 L 218 496 Z Z" stroke-miterlimit="10"/></g><g transform="translate(2,10) scale(1,1)"><rect fill="#ffffff" stroke="none" x="208" y="503" width="20" height="10"/></g><g transform="translate(2,10) scale(1,1)"><path fill="none" stroke="#000000" d="M 208 503 L 228 503 L 228 513 L 208 513 L 208 503 Z Z" stroke-miterlimit="10"/></g><g transform="translate(2,10) scale(1,1)"><rect fill="#ffffff" stroke="none" x="208" y="523" width="20" height="10"/></g><g transform="translate(2,10) scale(1,1)"><path fill="none" stroke="#000000" d="M 208 523 L 228 523 L 228 533 L 208 533 L 208 523 Z Z" stroke-miterlimit="10"/></g><g transform="translate(2,10) scale(1,1)"><g><path fill="none" stroke="none"/><text fill="#000000" stroke="none" font-family="Arial" font-size="13px" font-style="normal" font-weight="normal" text-decoration="none" x="300.064453125" y="513.5">«jar»</text></g></g><g transform="translate(2,10) scale(1,1)"><g><path fill="none" stroke="none"/><text fill="#000000" stroke="none" font-family="Arial" font-size="13px" font-style="normal" font-weight="bold" text-decoration="none" x="237.9462890625" y="528.5">mysql-java-driver v8.0.9-rc</text></g></g><g transform="translate(2,10) scale(1,1)"><rect fill="#C0C0C0" stroke="none" x="41" y="503" width="155.5634765625" height="44" opacity="0.2"/></g><g transform="translate(2,10) scale(1,1)"><rect fill="#ffffff" stroke="none" x="34" y="496" width="155.5634765625" height="44"/></g><g transform="translate(2,10) scale(1,1)"><path fill="none" stroke="#000000" d="M 34 496 L 189.5634765625 496 L 189.5634765625 540 L 34 540 L 34 496 Z Z" stroke-miterlimit="10"/></g><g transform="translate(2,10) scale(1,1)"><rect fill="#ffffff" stroke="none" x="24" y="503" width="20" height="10"/></g><g transform="translate(2,10) scale(1,1)"><path fill="none" stroke="#000000" d="M 24 503 L 44 503 L 44 513 L 24 513 L 24 503 Z Z" stroke-miterlimit="10"/></g><g transform="translate(2,10) scale(1,1)"><rect fill="#ffffff" stroke="none" x="24" y="523" width="20" height="10"/></g><g transform="translate(2,10) scale(1,1)"><path fill="none" stroke="#000000" d="M 24 523 L 44 523 L 44 533 L 24 533 L 24 523 Z Z" stroke-miterlimit="10"/></g><g transform="translate(2,10) scale(1,1)"><g><path fill="none" stroke="none"/><text fill="#000000" stroke="none" font-family="Arial" font-size="13px" font-style="normal" font-weight="normal" text-decoration="none" x="102.328125" y="513.5">«jar»</text></g></g><g transform="translate(2,10) scale(1,1)"><g><path fill="none" stroke="none"/><text fill="#000000" stroke="none" font-family="Arial" font-size="13px" font-style="normal" font-weight="bold" text-decoration="none" x="52.844970703125" y="528.5">twitter4j-stream v4.0.6</text></g></g><g transform="translate(2,10) scale(1,1)"><rect fill="#C0C0C0" stroke="none" x="89" y="143" width="115.5703125" height="44" opacity="0.2"/></g><g transform="translate(2,10) scale(1,1)"><rect fill="#ffffff" stroke="none" x="82" y="136" width="115.5703125" height="44"/></g><g transform="translate(2,10) scale(1,1)"><path fill="none" stroke="#000000" d="M 82 136 L 197.5703125 136 L 197.5703125 180 L 82 180 L 82 136 Z Z" stroke-miterlimit="10"/></g><g transform="translate(2,10) scale(1,1)"><rect fill="#ffffff" stroke="none" x="72" y="143" width="20" height="10"/></g><g transform="translate(2,10) scale(1,1)"><path fill="none" stroke="#000000" d="M 72 143 L 92 143 L 92 153 L 72 153 L 72 143 Z Z" stroke-miterlimit="10"/></g><g transform="translate(2,10) scale(1,1)"><rect fill="#ffffff" stroke="none" x="72" y="163" width="20" height="10"/></g><g transform="translate(2,10) scale(1,1)"><path fill="none" stroke="#000000" d="M 72 163 L 92 163 L 92 173 L 72 173 L 72 163 Z Z" stroke-miterlimit="10"/></g><g transform="translate(2,10) scale(1,1)"><g><path fill="none" stroke="none"/><text fill="#000000" stroke="none" font-family="Arial" font-size="13px" font-style="normal" font-weight="normal" text-decoration="none" x="110.809326171875" y="153.5">«database»</text></g></g><g transform="translate(2,10) scale(1,1)"><g><path fill="none" stroke="none"/><text fill="#000000" stroke="none" font-family="Arial" font-size="13px" font-style="normal" font-weight="bold" text-decoration="none" x="116.97607421875" y="168.5">Mysql DB</text></g></g><g transform="translate(2,10) scale(1,1)"><path fill="none" stroke="#000000" d="M 241 151 L 327 154" stroke-miterlimit="10"/></g><g transform="translate(2,10) scale(1,1)"><g><path fill="none" stroke="none"/><text fill="#000000" stroke="none" font-family="Arial" font-size="13px" font-style="normal" font-weight="normal" text-decoration="none" x="221.892822265625" y="143.5">+JDBC connect:3306</text></g></g><g transform="translate(2,10) scale(1,1)"><path fill="none" stroke="#000000" d="M 687 337 L 692 367" stroke-miterlimit="10"/></g><g transform="translate(2,10) scale(1,1)"><g><path fill="none" stroke="none"/><text fill="#000000" stroke="none" font-family="Arial" font-size="13px" font-style="normal" font-weight="normal" text-decoration="none" x="671.95703125" y="355.5">+http:8083</text></g></g><g transform="translate(2,10) scale(1,1)"><path fill="none" stroke="#000000" d="M 175 367 L 145 237" stroke-miterlimit="10"/></g><g transform="translate(2,10) scale(1,1)"><g><path fill="none" stroke="none"/><text fill="#000000" stroke="none" font-family="Arial" font-size="13px" font-style="normal" font-weight="normal" text-decoration="none" x="81.0869140625" y="311.5">+JDBC connect: 3306</text></g></g><g transform="translate(2,10) scale(1,1)"><rect fill="#C0C0C0" stroke="none" x="409" y="111" width="183.0361328125" height="44" opacity="0.2"/></g><g transform="translate(2,10) scale(1,1)"><rect fill="#ffffff" stroke="none" x="402" y="104" width="183.0361328125" height="44"/></g><g transform="translate(2,10) scale(1,1)"><path fill="none" stroke="#000000" d="M 402 104 L 585.0361328125 104 L 585.0361328125 148 L 402 148 L 402 104 Z Z" stroke-miterlimit="10"/></g><g transform="translate(2,10) scale(1,1)"><rect fill="#ffffff" stroke="none" x="392" y="111" width="20" height="10"/></g><g transform="translate(2,10) scale(1,1)"><path fill="none" stroke="#000000" d="M 392 111 L 412 111 L 412 121 L 392 121 L 392 111 Z Z" stroke-miterlimit="10"/></g><g transform="translate(2,10) scale(1,1)"><rect fill="#ffffff" stroke="none" x="392" y="131" width="20" height="10"/></g><g transform="translate(2,10) scale(1,1)"><path fill="none" stroke="#000000" d="M 392 131 L 412 131 L 412 141 L 392 141 L 392 131 Z Z" stroke-miterlimit="10"/></g><g transform="translate(2,10) scale(1,1)"><g><path fill="none" stroke="none"/><text fill="#000000" stroke="none" font-family="Arial" font-size="13px" font-style="normal" font-weight="normal" text-decoration="none" x="484.064453125" y="121.5">«jar»</text></g></g><g transform="translate(2,10) scale(1,1)"><g><path fill="none" stroke="none"/><text fill="#000000" stroke="none" font-family="Arial" font-size="13px" font-style="normal" font-weight="bold" text-decoration="none" x="421.9462890625" y="136.5">mysql-java-driver v8.0.9-rc</text></g></g><g transform="translate(2,10) scale(1,1)"><path fill="none" stroke="#000000" d="M 173 607 L 123 541" stroke-miterlimit="10" stroke-dasharray="3"/></g><g transform="translate(2,10) scale(1,1)"><path fill="none" stroke="#000000" d="M 132.49218289420978 546.5586386735307 L 123 541 L 125.78143579253931 551.6425379929781" stroke-miterlimit="10"/></g><g transform="translate(2,10) scale(1,1)"><g><path fill="none" stroke="none"/><text fill="#000000" stroke="none" font-family="Arial" font-size="13px" font-style="normal" font-weight="normal" text-decoration="none" x="121.76025390625" y="589.5">+use</text></g></g><g transform="translate(2,10) scale(1,1)"><path fill="none" stroke="#000000" d="M 213 607 L 281 541" stroke-miterlimit="10" stroke-dasharray="3"/></g><g transform="translate(2,10) scale(1,1)"><path fill="none" stroke="#000000" d="M 276.6392862136918 551.0987214672899 L 281 541 L 270.77563528005294 545.0573841417227" stroke-miterlimit="10"/></g><g transform="translate(2,10) scale(1,1)"><g><path fill="none" stroke="none"/><text fill="#000000" stroke="none" font-family="Arial" font-size="13px" font-style="normal" font-weight="normal" text-decoration="none" x="221.76025390625" y="569.5">+use</text></g></g><g transform="translate(2,10) scale(1,1)"><path fill="none" stroke="#000000" d="M 727 121 L 586 124" stroke-miterlimit="10" stroke-dasharray="3"/></g><g transform="translate(2,10) scale(1,1)"><path fill="none" stroke="#000000" d="M 596.0708314078773 119.5752565323953 L 586 124 L 596.2499192916507 127.9923870697424" stroke-miterlimit="10"/></g><g transform="translate(2,10) scale(1,1)"><g><path fill="none" stroke="none"/><text fill="#000000" stroke="none" font-family="Arial" font-size="13px" font-style="normal" font-weight="normal" text-decoration="none" x="641.76025390625" y="142.5">+use</text></g></g><g transform="translate(2,10) scale(1,1)"><path fill="none" stroke="#000000" d="M 743 141 L 603 175" stroke-miterlimit="10" stroke-dasharray="3"/></g><g transform="translate(2,10) scale(1,1)"><path fill="none" stroke="#000000" d="M 611.8821819918646 168.51102141601663 L 603 175 L 613.8690518778894 176.69225035847163" stroke-miterlimit="10"/></g><g transform="translate(2,10) scale(1,1)"><g><path fill="none" stroke="none"/><text fill="#000000" stroke="none" font-family="Arial" font-size="13px" font-style="normal" font-weight="normal" text-decoration="none" x="661.76025390625" y="178.5">+use</text></g></g><g transform="translate(2,10) scale(1,1)"><path fill="none" stroke="#000000" d="M 840 141 L 855 247" stroke-miterlimit="10" stroke-dasharray="3"/></g><g transform="translate(2,10) scale(1,1)"><path fill="none" stroke="#000000" d="M 849.4080792385704 237.52738567248235 L 855 247 L 857.7440647362879 236.3477650831827" stroke-miterlimit="10"/></g><g transform="translate(2,10) scale(1,1)"><g><path fill="none" stroke="none"/><text fill="#000000" stroke="none" font-family="Arial" font-size="13px" font-style="normal" font-weight="normal" text-decoration="none" x="846.76025390625" y="197.5">+use</text></g></g><g transform="translate(2,10) scale(1,1)"><rect fill="#C0C0C0" stroke="none" x="537" y="559" width="285" height="44" opacity="0.2"/></g><g transform="translate(2,10) scale(1,1)"><rect fill="#ffffff" stroke="none" x="530" y="552" width="285" height="44"/></g><g transform="translate(2,10) scale(1,1)"><path fill="none" stroke="#000000" d="M 530 552 L 815 552 L 815 596 L 530 596 L 530 552 Z Z" stroke-miterlimit="10"/></g><g transform="translate(2,10) scale(1,1)"><rect fill="#ffffff" stroke="none" x="520" y="559" width="20" height="10"/></g><g transform="translate(2,10) scale(1,1)"><path fill="none" stroke="#000000" d="M 520 559 L 540 559 L 540 569 L 520 569 L 520 559 Z Z" stroke-miterlimit="10"/></g><g transform="translate(2,10) scale(1,1)"><rect fill="#ffffff" stroke="none" x="520" y="579" width="20" height="10"/></g><g transform="translate(2,10) scale(1,1)"><path fill="none" stroke="#000000" d="M 520 579 L 540 579 L 540 589 L 520 589 L 520 579 Z Z" stroke-miterlimit="10"/></g><g transform="translate(2,10) scale(1,1)"><g><path fill="none" stroke="none"/><text fill="#000000" stroke="none" font-family="Arial" font-size="13px" font-style="normal" font-weight="normal" text-decoration="none" x="663.04638671875" y="569.5">«jar»</text></g></g><g transform="translate(2,10) scale(1,1)"><g><path fill="none" stroke="none"/><text fill="#000000" stroke="none" font-family="Arial" font-size="13px" font-style="normal" font-weight="bold" text-decoration="none" x="551.045166015625" y="584.5">Spring Boot Starter Web V1.5.10.RELEASE</text></g></g><g transform="translate(2,10) scale(1,1)"><rect fill="#C0C0C0" stroke="none" x="537" y="255" width="234" height="44" opacity="0.2"/></g><g transform="translate(2,10) scale(1,1)"><rect fill="#ffffff" stroke="none" x="530" y="248" width="234" height="44"/></g><g transform="translate(2,10) scale(1,1)"><path fill="none" stroke="#000000" d="M 530 248 L 764 248 L 764 292 L 530 292 L 530 248 Z Z" stroke-miterlimit="10"/></g><g transform="translate(2,10) scale(1,1)"><rect fill="#ffffff" stroke="none" x="520" y="255" width="20" height="10"/></g><g transform="translate(2,10) scale(1,1)"><path fill="none" stroke="#000000" d="M 520 255 L 540 255 L 540 265 L 520 265 L 520 255 Z Z" stroke-miterlimit="10"/></g><g transform="translate(2,10) scale(1,1)"><rect fill="#ffffff" stroke="none" x="520" y="275" width="20" height="10"/></g><g transform="translate(2,10) scale(1,1)"><path fill="none" stroke="#000000" d="M 520 275 L 540 275 L 540 285 L 520 285 L 520 275 Z Z" stroke-miterlimit="10"/></g><g transform="translate(2,10) scale(1,1)"><g><path fill="none" stroke="none"/><text fill="#000000" stroke="none" font-family="Arial" font-size="13px" font-style="normal" font-weight="normal" text-decoration="none" x="637.54638671875" y="265.5">«jar»</text></g></g><g transform="translate(2,10) scale(1,1)"><g><path fill="none" stroke="none"/><text fill="#000000" stroke="none" font-family="Arial" font-size="13px" font-style="normal" font-weight="bold" text-decoration="none" x="547.6064453125" y="280.5">Tweet Common V0.0.1-SNAPSHOT</text></g></g><g transform="translate(2,10) scale(1,1)"><path fill="none" stroke="#000000" d="M 807 141 L 672 247" stroke-miterlimit="10" stroke-dasharray="3"/></g><g transform="translate(2,10) scale(1,1)"><path fill="none" stroke="#000000" d="M 677.3935042072599 237.41302381528615 L 672 247 L 682.5927992705967 244.0347675280265" stroke-miterlimit="10"/></g><g transform="translate(2,10) scale(1,1)"><g><path fill="none" stroke="none"/><text fill="#000000" stroke="none" font-family="Arial" font-size="13px" font-style="normal" font-weight="normal" text-decoration="none" x="733.76025390625" y="211.5">+use</text></g></g><g transform="translate(2,10) scale(1,1)"><rect fill="#C0C0C0" stroke="none" x="65" y="727" width="234" height="44" opacity="0.2"/></g><g transform="translate(2,10) scale(1,1)"><rect fill="#ffffff" stroke="none" x="58" y="720" width="234" height="44"/></g><g transform="translate(2,10) scale(1,1)"><path fill="none" stroke="#000000" d="M 58 720 L 292 720 L 292 764 L 58 764 L 58 720 Z Z" stroke-miterlimit="10"/></g><g transform="translate(2,10) scale(1,1)"><rect fill="#ffffff" stroke="none" x="48" y="727" width="20" height="10"/></g><g transform="translate(2,10) scale(1,1)"><path fill="none" stroke="#000000" d="M 48 727 L 68 727 L 68 737 L 48 737 L 48 727 Z Z" stroke-miterlimit="10"/></g><g transform="translate(2,10) scale(1,1)"><rect fill="#ffffff" stroke="none" x="48" y="747" width="20" height="10"/></g><g transform="translate(2,10) scale(1,1)"><path fill="none" stroke="#000000" d="M 48 747 L 68 747 L 68 757 L 48 757 L 48 747 Z Z" stroke-miterlimit="10"/></g><g transform="translate(2,10) scale(1,1)"><g><path fill="none" stroke="none"/><text fill="#000000" stroke="none" font-family="Arial" font-size="13px" font-style="normal" font-weight="normal" text-decoration="none" x="165.54638671875" y="737.5">«jar»</text></g></g><g transform="translate(2,10) scale(1,1)"><g><path fill="none" stroke="none"/><text fill="#000000" stroke="none" font-family="Arial" font-size="13px" font-style="normal" font-weight="bold" text-decoration="none" x="75.6064453125" y="752.5">Tweet Common V0.0.1-SNAPSHOT</text></g></g><g transform="translate(2,10) scale(1,1)"><path fill="none" stroke="#000000" d="M 186 653 L 174 719" stroke-miterlimit="10" stroke-dasharray="3"/></g><g transform="translate(2,10) scale(1,1)"><path fill="none" stroke="#000000" d="M 171.67633668901465 708.2482285730592 L 174 719 L 179.95957240136545 709.7542714298503" stroke-miterlimit="10"/></g><g transform="translate(2,10) scale(1,1)"><g><path fill="none" stroke="none"/><text fill="#000000" stroke="none" font-family="Arial" font-size="13px" font-style="normal" font-weight="normal" text-decoration="none" x="179.76025390625" y="694.5">+use</text></g></g><g transform="translate(2,10) scale(1,1)"><path fill="none" stroke="#000000" d="M 722 455 L 705 413" stroke-miterlimit="10"/></g><g transform="translate(2,10) scale(1,1)"><g><path fill="none" stroke="none"/><text fill="#000000" stroke="none" font-family="Arial" font-size="13px" font-style="normal" font-weight="normal" text-decoration="none" x="666.95703125" y="445.5">+http:8080</text></g></g><g transform="translate(2,10) scale(1,1)"><rect fill="#C0C0C0" stroke="none" x="545" y="687" width="263.89892578125" height="44" opacity="0.2"/></g><g transform="translate(2,10) scale(1,1)"><rect fill="#ffffff" stroke="none" x="538" y="680" width="263.89892578125" height="44"/></g><g transform="translate(2,10) scale(1,1)"><path fill="none" stroke="#000000" d="M 538 680 L 801.89892578125 680 L 801.89892578125 724 L 538 724 L 538 680 Z Z" stroke-miterlimit="10"/></g><g transform="translate(2,10) scale(1,1)"><rect fill="#ffffff" stroke="none" x="528" y="687" width="20" height="10"/></g><g transform="translate(2,10) scale(1,1)"><path fill="none" stroke="#000000" d="M 528 687 L 548 687 L 548 697 L 528 697 L 528 687 Z Z" stroke-miterlimit="10"/></g><g transform="translate(2,10) scale(1,1)"><rect fill="#ffffff" stroke="none" x="528" y="707" width="20" height="10"/></g><g transform="translate(2,10) scale(1,1)"><path fill="none" stroke="#000000" d="M 528 707 L 548 707 L 548 717 L 528 717 L 528 707 Z Z" stroke-miterlimit="10"/></g><g transform="translate(2,10) scale(1,1)"><g><path fill="none" stroke="none"/><text fill="#000000" stroke="none" font-family="Arial" font-size="13px" font-style="normal" font-weight="normal" text-decoration="none" x="660.495849609375" y="697.5">«jar»</text></g></g><g transform="translate(2,10) scale(1,1)"><g><path fill="none" stroke="none"/><text fill="#000000" stroke="none" font-family="Arial" font-size="13px" font-style="normal" font-weight="bold" text-decoration="none" x="558.622314453125" y="712.5">authentication-service V1.0-SNAPSHOT</text></g></g><g transform="translate(2,10) scale(1,1)"><rect fill="#C0C0C0" stroke="none" x="793" y="783" width="159.88623046875" height="44" opacity="0.2"/></g><g transform="translate(2,10) scale(1,1)"><rect fill="#ffffff" stroke="none" x="786" y="776" width="159.88623046875" height="44"/></g><g transform="translate(2,10) scale(1,1)"><path fill="none" stroke="#000000" d="M 786 776 L 945.88623046875 776 L 945.88623046875 820 L 786 820 L 786 776 Z Z" stroke-miterlimit="10"/></g><g transform="translate(2,10) scale(1,1)"><rect fill="#ffffff" stroke="none" x="776" y="783" width="20" height="10"/></g><g transform="translate(2,10) scale(1,1)"><path fill="none" stroke="#000000" d="M 776 783 L 796 783 L 796 793 L 776 793 L 776 783 Z Z" stroke-miterlimit="10"/></g><g transform="translate(2,10) scale(1,1)"><rect fill="#ffffff" stroke="none" x="776" y="803" width="20" height="10"/></g><g transform="translate(2,10) scale(1,1)"><path fill="none" stroke="#000000" d="M 776 803 L 796 803 L 796 813 L 776 813 L 776 803 Z Z" stroke-miterlimit="10"/></g><g transform="translate(2,10) scale(1,1)"><g><path fill="none" stroke="none"/><text fill="#000000" stroke="none" font-family="Arial" font-size="13px" font-style="normal" font-weight="normal" text-decoration="none" x="856.489501953125" y="793.5">«jar»</text></g></g><g transform="translate(2,10) scale(1,1)"><g><path fill="none" stroke="none"/><text fill="#000000" stroke="none" font-family="Arial" font-size="13px" font-style="normal" font-weight="bold" text-decoration="none" x="804.46728515625" y="808.5">commons-codec V1.11</text></g></g><g transform="translate(2,10) scale(1,1)"><path fill="none" stroke="#000000" d="M 711 725 L 813 775" stroke-miterlimit="10" stroke-dasharray="3"/></g><g transform="translate(2,10) scale(1,1)"><path fill="none" stroke="#000000" d="M 802.0218740265058 774.3066385429722 L 813 775 L 805.7275732674998 766.7470120913443" stroke-miterlimit="10"/></g><g transform="translate(2,10) scale(1,1)"><rect fill="#C0C0C0" stroke="none" x="889" y="575" width="98.44091796875" height="44" opacity="0.2"/></g><g transform="translate(2,10) scale(1,1)"><rect fill="#ffffff" stroke="none" x="882" y="568" width="98.44091796875" height="44"/></g><g transform="translate(2,10) scale(1,1)"><path fill="none" stroke="#000000" d="M 882 568 L 980.44091796875 568 L 980.44091796875 612 L 882 612 L 882 568 Z Z" stroke-miterlimit="10"/></g><g transform="translate(2,10) scale(1,1)"><rect fill="#ffffff" stroke="none" x="872" y="575" width="20" height="10"/></g><g transform="translate(2,10) scale(1,1)"><path fill="none" stroke="#000000" d="M 872 575 L 892 575 L 892 585 L 872 585 L 872 575 Z Z" stroke-miterlimit="10"/></g><g transform="translate(2,10) scale(1,1)"><rect fill="#ffffff" stroke="none" x="872" y="595" width="20" height="10"/></g><g transform="translate(2,10) scale(1,1)"><path fill="none" stroke="#000000" d="M 872 595 L 892 595 L 892 605 L 872 605 L 872 595 Z Z" stroke-miterlimit="10"/></g><g transform="translate(2,10) scale(1,1)"><g><path fill="none" stroke="none"/><text fill="#000000" stroke="none" font-family="Arial" font-size="13px" font-style="normal" font-weight="normal" text-decoration="none" x="921.766845703125" y="585.5">«jar»</text></g></g><g transform="translate(2,10) scale(1,1)"><g><path fill="none" stroke="none"/><text fill="#000000" stroke="none" font-family="Arial" font-size="13px" font-style="normal" font-weight="bold" text-decoration="none" x="917.06640625" y="600.5">hsqldb</text></g></g><g transform="translate(2,10) scale(1,1)"><rect fill="#C0C0C0" stroke="none" x="897" y="695" width="140.39892578125" height="44" opacity="0.2"/></g><g transform="translate(2,10) scale(1,1)"><rect fill="#ffffff" stroke="none" x="890" y="688" width="140.39892578125" height="44"/></g><g transform="translate(2,10) scale(1,1)"><path fill="none" stroke="#000000" d="M 890 688 L 1030.39892578125 688 L 1030.39892578125 732 L 890 732 L 890 688 Z Z" stroke-miterlimit="10"/></g><g transform="translate(2,10) scale(1,1)"><rect fill="#ffffff" stroke="none" x="880" y="695" width="20" height="10"/></g><g transform="translate(2,10) scale(1,1)"><path fill="none" stroke="#000000" d="M 880 695 L 900 695 L 900 705 L 880 705 L 880 695 Z Z" stroke-miterlimit="10"/></g><g transform="translate(2,10) scale(1,1)"><rect fill="#ffffff" stroke="none" x="880" y="715" width="20" height="10"/></g><g transform="translate(2,10) scale(1,1)"><path fill="none" stroke="#000000" d="M 880 715 L 900 715 L 900 725 L 880 725 L 880 715 Z Z" stroke-miterlimit="10"/></g><g transform="translate(2,10) scale(1,1)"><g><path fill="none" stroke="none"/><text fill="#000000" stroke="none" font-family="Arial" font-size="13px" font-style="normal" font-weight="normal" text-decoration="none" x="950.745849609375" y="705.5">«jar»</text></g></g><g transform="translate(2,10) scale(1,1)"><g><path fill="none" stroke="none"/><text fill="#000000" stroke="none" font-family="Arial" font-size="13px" font-style="normal" font-weight="bold" text-decoration="none" x="907.753173828125" y="720.5">jackson-core V2.5.0</text></g></g><g transform="translate(2,10) scale(1,1)"><path fill="none" stroke="#000000" d="M 718 679 L 872 613" stroke-miterlimit="10" stroke-dasharray="3"/></g><g transform="translate(2,10) scale(1,1)"><path fill="none" stroke="#000000" d="M 864.3172381947317 620.8724310758183 L 872 613 L 861.0008176311189 613.1341164273886" stroke-miterlimit="10"/></g><g transform="translate(2,10) scale(1,1)"><g><path fill="none" stroke="none"/><text fill="#000000" stroke="none" font-family="Arial" font-size="13px" font-style="normal" font-weight="normal" text-decoration="none" x="774.66455078125" y="638.5">+use</text></g></g><g transform="translate(2,10) scale(1,1)"><path fill="none" stroke="#000000" d="M 803 706 L 879 708" stroke-miterlimit="10" stroke-dasharray="3"/></g><g transform="translate(2,10) scale(1,1)"><path fill="none" stroke="#000000" d="M 868.7301038021151 711.9407146667412 L 879 708 L 868.9515806928197 703.5245928199677" stroke-miterlimit="10"/></g><g transform="translate(2,10) scale(1,1)"><g><path fill="none" stroke="none"/><text fill="#000000" stroke="none" font-family="Arial" font-size="13px" font-style="normal" font-weight="normal" text-decoration="none" x="826.66455078125" y="698.5">+use</text></g></g><g transform="translate(2,10) scale(1,1)"><path fill="none" stroke="#000000" d="M 665 679 L 666 597" stroke-miterlimit="10" stroke-dasharray="3"/></g><g transform="translate(2,10) scale(1,1)"><path fill="none" stroke="#000000" d="M 670.0852789246883 607.2132510058011 L 666 597 L 661.6668693865233 607.1105874748479" stroke-miterlimit="10"/></g><g transform="translate(2,10) scale(1,1)"><g><path fill="none" stroke="none"/><text fill="#000000" stroke="none" font-family="Arial" font-size="13px" font-style="normal" font-weight="normal" text-decoration="none" x="635.5" y="643.5">+use</text></g></g><g transform="translate(2,10) scale(1,1)"><rect fill="#C0C0C0" stroke="none" x="561" y="767" width="167.103515625" height="44" opacity="0.2"/></g><g transform="translate(2,10) scale(1,1)"><rect fill="#ffffff" stroke="none" x="554" y="760" width="167.103515625" height="44"/></g><g transform="translate(2,10) scale(1,1)"><path fill="none" stroke="#000000" d="M 554 760 L 721.103515625 760 L 721.103515625 804 L 554 804 L 554 760 Z Z" stroke-miterlimit="10"/></g><g transform="translate(2,10) scale(1,1)"><rect fill="#ffffff" stroke="none" x="544" y="767" width="20" height="10"/></g><g transform="translate(2,10) scale(1,1)"><path fill="none" stroke="#000000" d="M 544 767 L 564 767 L 564 777 L 544 777 L 544 767 Z Z" stroke-miterlimit="10"/></g><g transform="translate(2,10) scale(1,1)"><rect fill="#ffffff" stroke="none" x="544" y="787" width="20" height="10"/></g><g transform="translate(2,10) scale(1,1)"><path fill="none" stroke="#000000" d="M 544 787 L 564 787 L 564 797 L 544 797 L 544 787 Z Z" stroke-miterlimit="10"/></g><g transform="translate(2,10) scale(1,1)"><g><path fill="none" stroke="none"/><text fill="#000000" stroke="none" font-family="Arial" font-size="13px" font-style="normal" font-weight="bold" text-decoration="none" x="572.81005859375" y="779.5">jackson-databind V2.5.0</text></g></g><g transform="translate(2,10) scale(1,1)"><path fill="none" stroke="#000000" d="M 655 725 L 641 759" stroke-miterlimit="10" stroke-dasharray="3"/></g><g transform="translate(2,10) scale(1,1)"><path fill="none" stroke="#000000" d="M 640.9769875987747 748.0000240714177 L 641 759 L 648.7618853470316 751.2055702030528" stroke-miterlimit="10"/></g><g transform="translate(2,10) scale(1,1)"><g><path fill="none" stroke="none"/><text fill="#000000" stroke="none" font-family="Arial" font-size="13px" font-style="normal" font-weight="normal" text-decoration="none" x="646.5" y="753.5">+use</text></g></g></g></svg>