<svg version="1.1" xmlns="http://www.w3.org/2000/svg" xmlns:xlink="http://www.w3.org/1999/xlink" width="1004" height="820"><defs/><g><g transform="translate(2,10) scale(1,1)"><path fill="#C0C0C0" stroke="none" d="M 511 473 L 940 473 L 940 806 L 511 806" opacity="0.2"/></g><g transform="translate(2,10) scale(1,1)"><path fill="#C0C0C0" stroke="none" d="M 511 473 L 521 463 L 950 463 L 940 473" opacity="0.2"/></g><g transform="translate(2,10) scale(1,1)"><path fill="#C0C0C0" stroke="none" d="M 950 463 L 940 473 L 940 806 L 950 796" opacity="0.2"/></g><g transform="translate(2,10) scale(1,1)"><path fill="#ffffff" stroke="none" d="M 504 466 L 933 466 L 933 799 L 504 799"/></g><g transform="translate(2,10) scale(1,1)"><path fill="#ffffff" stroke="none" d="M 504 466 L 514 456 L 943 456 L 933 466"/></g><g transform="translate(2,10) scale(1,1)"><path fill="#ffffff" stroke="none" d="M 943 456 L 933 466 L 933 799 L 943 789"/></g><g transform="translate(2,10) scale(1,1)"><path fill="none" stroke="#000000" d="M 504 466 L 933 466 L 933 799 L 504 799 L 504 466" stroke-miterlimit="10"/></g><g transform="translate(2,10) scale(1,1)"><path fill="none" stroke="#000000" d="M 504 466 L 514 456 L 943 456 L 933 466 L 504 466" stroke-miterlimit="10"/></g><g transform="translate(2,10) scale(1,1)"><path fill="none" stroke="#000000" d="M 943 456 L 933 466 L 933 799 L 943 789 L 943 456" stroke-miterlimit="10"/></g><g transform="translate(2,10) scale(1,1)"><g><path fill="none" stroke="none"/><text fill="#000000" stroke="none" font-family="Arial" font-size="13px" font-style="normal" font-weight="bold" text-decoration="none" x="656.5" y="485.5">Authentication Server</text></g></g><g transform="translate(2,10) scale(1,1)"><path fill="#C0C0C0" stroke="none" d="M 335 17 L 988 17 L 988 342 L 335 342" opacity="0.2"/></g><g transform="translate(2,10) scale(1,1)"><path fill="#C0C0C0" stroke="none" d="M 335 17 L 345 7 L 998 7 L 988 17" opacity="0.2"/></g><g transform="translate(2,10) scale(1,1)"><path fill="#C0C0C0" stroke="none" d="M 998 7 L 988 17 L 988 342 L 998 332" opacity="0.2"/></g><g transform="translate(2,10) scale(1,1)"><path fill="#ffffff" stroke="none" d="M 328 10 L 981 10 L 981 335 L 328 335"/></g><g transform="translate(2,10) scale(1,1)"><path fill="#ffffff" stroke="none" d="M 328 10 L 338 0 L 991 0 L 981 10"/></g><g transform="translate(2,10) scale(1,1)"><path fill="#ffffff" stroke="none" d="M 991 0 L 981 10 L 981 335 L 991 325"/></g><g transform="translate(2,10) scale(1,1)"><path fill="none" stroke="#000000" d="M 328 10 L 981 10 L 981 335 L 328 335 L 328 10" stroke-miterlimit="10"/></g><g transform="translate(2,10) scale(1,1)"><path fill="none" stroke="#000000" d="M 328 10 L 338 0 L 991 0 L 981 10 L 328 10" stroke-miterlimit="10"/></g><g transform="translate(2,10) scale(1,1)"><path fill="none" stroke="#000000" d="M 991 0 L 981 10 L 981 335 L 991 325 L 991 0" stroke-miterlimit="10"/></g><g transform="translate(2,10) scale(1,1)"><g><path fill="none" stroke="none"/><text fill="#000000" stroke="none" font-family="Arial" font-size="13px" font-style="normal" font-weight="normal" text-decoration="none" x="633" y="27.5">«Node»</text></g></g><g transform="translate(2,10) scale(1,1)"><g><path fill="none" stroke="none"/><text fill="#000000" stroke="none" font-family="Arial" font-size="13px" font-style="normal" font-weight="bold" text-decoration="none" x="617.5" y="42.5">Tweet server</text></g></g><g transform="translate(2,10) scale(1,1)"><path fill="#C0C0C0" stroke="none" d="M 351 73 L 956 73 L 956 326 L 351 326" opacity="0.2"/></g><g transform="translate(2,10) scale(1,1)"><path fill="#C0C0C0" stroke="none" d="M 351 73 L 361 63 L 966 63 L 956 73" opacity="0.2"/></g><g transform="translate(2,10) scale(1,1)"><path fill="#C0C0C0" stroke="none" d="M 966 63 L 956 73 L 956 326 L 966 316" opacity="0.2"/></g><g transform="translate(2,10) scale(1,1)"><path fill="#ffffff" stroke="none" d="M 344 66 L 949 66 L 949 319 L 344 319"/></g><g transform="translate(2,10) scale(1,1)"><path fill="#ffffff" stroke="none" d="M 344 66 L 354 56 L 959 56 L 949 66"/></g><g transform="translate(2,10) scale(1,1)"><path fill="#ffffff" stroke="none" d="M 959 56 L 949 66 L 949 319 L 959 309"/></g><g transform="translate(2,10) scale(1,1)"><path fill="none" stroke="#000000" d="M 344 66 L 949 66 L 949 319 L 344 319 L 344 66" stroke-miterlimit="10"/></g><g transform="translate(2,10) scale(1,1)"><path fill="none" stroke="#000000" d="M 344 66 L 354 56 L 959 56 L 949 66 L 344 66" stroke-miterlimit="10"/></g><g transform="translate(2,10) scale(1,1)"><path fill="none" stroke="#000000" d="M 959 56 L 949 66 L 949 319 L 959 309 L 959 56" stroke-miterlimit="10"/></g><g transform="translate(2,10) scale(1,1)"><g><path fill="none" stroke="none"/><text fill="#000000" stroke="none" font-family="Arial" font-size="13px" font-style="normal" font-weight="bold" text-decoration="none" x="594" y="85.5">Tomcat server 9.0</text><path fill="none" stroke="#000000" d="M 702 85.5 L 592 85.5" stroke-miterlimit="10"/></g></g><g transform="translate(2,10) scale(1,1)"><path fill="#C0C0C0" stroke="none" d="M 519 537 L 884 537 L 884 766 L 519 766" opacity="0.2"/></g><g transform="translate(2,10) scale(1,1)"><path fill="#C0C0C0" stroke="none" d="M 519 537 L 529 527 L 894 527 L 884 537" opacity="0.2"/></g><g transform="translate(2,10) scale(1,1)"><path fill="#C0C0C0" stroke="none" d="M 894 527 L 884 537 L 884 766 L 894 756" opacity="0.2"/></g><g transform="translate(2,10) scale(1,1)"><path fill="#ffffff" stroke="none" d="M 512 530 L 877 530 L 877 759 L 512 759"/></g><g transform="translate(2,10) scale(1,1)"><path fill="#ffffff" stroke="none" d="M 512 530 L 522 520 L 887 520 L 877 530"/></g><g transform="translate(2,10) scale(1,1)"><path fill="#ffffff" stroke="none" d="M 887 520 L 877 530 L 877 759 L 887 749"/></g><g transform="translate(2,10) scale(1,1)"><path fill="none" stroke="#000000" d="M 512 530 L 877 530 L 877 759 L 512 759 L 512 530" stroke-miterlimit="10"/></g><g transform="translate(2,10) scale(1,1)"><path fill="none" stroke="#000000" d="M 512 530 L 522 520 L 887 520 L 877 530 L 512 530" stroke-miterlimit="10"/></g><g transform="translate(2,10) scale(1,1)"><path fill="none" stroke="#000000" d="M 887 520 L 877 530 L 877 759 L 887 749 L 887 520" stroke-miterlimit="10"/></g><g transform="translate(2,10) scale(1,1)"><g><path fill="none" stroke="none"/><text fill="#000000" stroke="none" font-family="Arial" font-size="13px" font-style="normal" font-weight="bold" text-decoration="none" x="642" y="549.5">Tomcat server 9.0</text><path fill="none" stroke="#000000" d="M 750 549.5 L 640 549.5" stroke-miterlimit="10"/></g></g><g transform="translate(2,10) scale(1,1)"><path fill="#C0C0C0" stroke="none" d="M 23 385 L 428 385 L 428 798 L 23 798" opacity="0.2"/></g><g transform="translate(2,10) scale(1,1)"><path fill="#C0C0C0" stroke="none" d="M 23 385 L 33 375 L 438 375 L 428 385" opacity="0.2"/></g><g transform="translate(2,10) scale(1,1)"><path fill="#C0C0C0" stroke="none" d="M 438 375 L 428 385 L 428 798 L 438 788" opacity="0.2"/></g><g transform="translate(2,10) scale(1,1)"><path fill="#ffffff" stroke="none" d="M 16 378 L 421 378 L 421 791 L 16 791"/></g><g transform="translate(2,10) scale(1,1)"><path fill="#ffffff" stroke="none" d="M 16 378 L 26 368 L 431 368 L 421 378"/></g><g transform="translate(2,10) scale(1,1)"><path fill="#ffffff" stroke="none" d="M 431 368 L 421 378 L 421 791 L 431 781"/></g><g transform="translate(2,10) scale(1,1)"><path fill="none" stroke="#000000" d="M 16 378 L 421 378 L 421 791 L 16 791 L 16 378" stroke-miterlimit="10"/></g><g transform="translate(2,10) scale(1,1)"><path fill="none" stroke="#000000" d="M 16 378 L 26 368 L 431 368 L 421 378 L 16 378" stroke-miterlimit="10"/></g><g transform="translate(2,10) scale(1,1)"><path fill="none" stroke="#000000" d="M 431 368 L 421 378 L 421 791 L 431 781 L 431 368" stroke-miterlimit="10"/></g><g transform="translate(2,10) scale(1,1)"><g><path fill="none" stroke="none"/><text fill="#000000" stroke="none" font-family="Arial" font-size="13px" font-style="normal" font-weight="bold" text-decoration="none" x="160" y="397.5">tweet-scraper server</text></g></g><g transform="translate(2,10) scale(1,1)"><path fill="#C0C0C0" stroke="none" d="M 15 73 L 236 73 L 236 242 L 15 242" opacity="0.2"/></g><g transform="translate(2,10) scale(1,1)"><path fill="#C0C0C0" stroke="none" d="M 15 73 L 25 63 L 246 63 L 236 73" opacity="0.2"/></g><g transform="translate(2,10) scale(1,1)"><path fill="#C0C0C0" stroke="none" d="M 246 63 L 236 73 L 236 242 L 246 232" opacity="0.2"/></g><g transform="translate(2,10) scale(1,1)"><path fill="#ffffff" stroke="none" d="M 8 66 L 229 66 L 229 235 L 8 235"/></g><g transform="translate(2,10) scale(1,1)"><path fill="#ffffff" stroke="none" d="M 8 66 L 18 56 L 239 56 L 229 66"/></g><g transform="translate(2,10) scale(1,1)"><path fill="#ffffff" stroke="none" d="M 239 56 L 229 66 L 229 235 L 239 225"/></g><g transform="translate(2,10) scale(1,1)"><path fill="none" stroke="#000000" d="M 8 66 L 229 66 L 229 235 L 8 235 L 8 66" stroke-miterlimit="10"/></g><g transform="translate(2,10) scale(1,1)"><path fill="none" stroke="#000000" d="M 8 66 L 18 56 L 239 56 L 229 66 L 8 66" stroke-miterlimit="10"/></g><g transform="translate(2,10) scale(1,1)"><path fill="none" stroke="#000000" d="M 239 56 L 229 66 L 229 235 L 239 225 L 239 56" stroke-miterlimit="10"/></g><g transform="translate(2,10) scale(1,1)"><g><path fill="none" stroke="none"/><text fill="#000000" stroke="none" font-family="Arial" font-size="13px" font-style="normal" font-weight="normal" text-decoration="none" x="97" y="83.5">«Node»</text></g></g><g transform="translate(2,10) scale(1,1)"><g><path fill="none" stroke="none"/><text fill="#000000" stroke="none" font-family="Arial" font-size="13px" font-style="normal" font-weight="bold" text-decoration="none" x="71.5" y="98.5">Database server</text></g></g><g transform="translate(2,10) scale(1,1)"><path fill="#C0C0C0" stroke="none" d="M 583 385 L 812 385 L 812 418 L 583 418" opacity="0.2"/></g><g transform="translate(2,10) scale(1,1)"><path fill="#C0C0C0" stroke="none" d="M 583 385 L 593 375 L 822 375 L 812 385" opacity="0.2"/></g><g transform="translate(2,10) scale(1,1)"><path fill="#C0C0C0" stroke="none" d="M 822 375 L 812 385 L 812 418 L 822 408" opacity="0.2"/></g><g transform="translate(2,10) scale(1,1)"><path fill="#ffffff" stroke="none" d="M 576 378 L 805 378 L 805 411 L 576 411"/></g><g transform="translate(2,10) scale(1,1)"><path fill="#ffffff" stroke="none" d="M 576 378 L 586 368 L 815 368 L 805 378"/></g><g transform="translate(2,10) scale(1,1)"><path fill="#ffffff" stroke="none" d="M 815 368 L 805 378 L 805 411 L 815 401"/></g><g transform="translate(2,10) scale(1,1)"><path fill="none" stroke="#000000" d="M 576 378 L 805 378 L 805 411 L 576 411 L 576 378" stroke-miterlimit="10"/></g><g transform="translate(2,10) scale(1,1)"><path fill="none" stroke="#000000" d="M 576 378 L 586 368 L 815 368 L 805 378 L 576 378" stroke-miterlimit="10"/></g><g transform="translate(2,10) scale(1,1)"><path fill="none" stroke="#000000" d="M 815 368 L 805 378 L 805 411 L 815 401 L 815 368" stroke-miterlimit="10"/></g><g transform="translate(2,10) scale(1,1)"><g><path fill="none" stroke="none"/><text fill="#000000" stroke="none" font-family="Arial" font-size="13px" font-style="normal" font-weight="bold" text-decoration="none" x="655" y="397.5">web browser</text></g></g><g transform="translate(2,10) scale(1,1)"><rect fill="#C0C0C0" stroke="none" x="809" y="255" width="122.91259765625" height="44" opacity="0.2"/></g><g transform="translate(2,10) scale(1,1)"><rect fill="#ffffff" stroke="none" x="802" y="248" width="122.91259765625" height="44"/></g><g transform="translate(2,10) scale(1,1)"><path fill="none" stroke="#000000" d="M 802 248 L 924.91259765625 248 L 924.91259765625 292 L 802 292 L 802 248 Z Z" stroke-miterlimit="10"/></g><g transform="translate(2,10) scale(1,1)"><rect fill="#ffffff" stroke="none" x="792" y="255" width="20" height="10"/></g><g transform="translate(2,10) scale(1,1)"><path fill="none" stroke="#000000" d="M 792 255 L 812 255 L 812 265 L 792 265 L 792 255 Z Z" stroke-miterlimit="10"/></g><g transform="translate(2,10) scale(1,1)"><rect fill="#ffffff" stroke="none" x="792" y="275" width="20" height="10"/></g><g transform="translate(2,10) scale(1,1)"><path fill="none" stroke="#000000" d="M 792 275 L 812 275 L 812 285 L 792 285 L 792 275 Z Z" stroke-miterlimit="10"/></g><g transform="translate(2,10) scale(1,1)"><g><path fill="none" stroke="none"/><text fill="#000000" stroke="none" font-family="Arial" font-size="13px" font-style="normal" font-weight="bold" text-decoration="none" x="821.456298828125" y="267.5">Bootsrap V3.3.2</text></g></g><g transform="translate(2,10) scale(1,1)"><rect fill="#C0C0C0" stroke="none" x="745" y="103" width="206" height="44" opacity="0.2"/></g><g transform="translate(2,10) scale(1,1)"><rect fill="#ffffff" stroke="none" x="738" y="96" width="206" height="44"/></g><g transform="translate(2,10) scale(1,1)"><path fill="none" stroke="#000000" d="M 738 96 L 944 96 L 944 140 L 738 140 L 738 96 Z Z" stroke-miterlimit="10"/></g><g transform="translate(2,10) scale(1,1)"><rect fill="#ffffff" stroke="none" x="728" y="103" width="20" height="10"/></g><g transform="translate(2,10) scale(1,1)"><path fill="none" stroke="#000000" d="M 728 103 L 748 103 L 748 113 L 728 113 L 728 103 Z Z" stroke-miterlimit="10"/></g><g transform="translate(2,10) scale(1,1)"><rect fill="#ffffff" stroke="none" x="728" y="123" width="20" height="10"/></g><g transform="translate(2,10) scale(1,1)"><path fill="none" stroke="#000000" d="M 728 123 L 748 123 L 748 133 L 728 133 L 728 123 Z Z" stroke-miterlimit="10"/></g><g transform="translate(2,10) scale(1,1)"><g><path fill="none" stroke="none"/><text fill="#000000" stroke="none" font-family="Arial" font-size="13px" font-style="normal" font-weight="normal" text-decoration="none" x="832" y="113.5">«jar»</text></g></g><g transform="translate(2,10) scale(1,1)"><g><path fill="none" stroke="none"/><text fill="#000000" stroke="none" font-family="Arial" font-size="13px" font-style="normal" font-weight="bold" text-decoration="none" x="754" y="128.5">tweet-service V1.0-SNAPSHOT</text></g></g><g transform="translate(2,10) scale(1,1)"><rect fill="#C0C0C0" stroke="none" x="97" y="615" width="208" height="44" opacity="0.2"/></g><g transform="translate(2,10) scale(1,1)"><rect fill="#ffffff" stroke="none" x="90" y="608" width="208" height="44"/></g><g transform="translate(2,10) scale(1,1)"><path fill="none" stroke="#000000" d="M 90 608 L 298 608 L 298 652 L 90 652 L 90 608 Z Z" stroke-miterlimit="10"/></g><g transform="translate(2,10) scale(1,1)"><rect fill="#ffffff" stroke="none" x="80" y="615" width="20" height="10"/></g><g transform="translate(2,10) scale(1,1)"><path fill="none" stroke="#000000" d="M 80 615 L 100 615 L 100 625 L 80 625 L 80 615 Z Z" stroke-miterlimit="10"/></g><g transform="translate(2,10) scale(1,1)"><rect fill="#ffffff" stroke="none" x="80" y="635" width="20" height="10"/></g><g transform="translate(2,10) scale(1,1)"><path fill="none" stroke="#000000" d="M 80 635 L 100 635 L 100 645 L 80 645 L 80 635 Z Z" stroke-miterlimit="10"/></g><g transform="translate(2,10) scale(1,1)"><g><path fill="none" stroke="none"/><text fill="#000000" stroke="none" font-family="Arial" font-size="13px" font-style="normal" font-weight="normal" text-decoration="none" x="185" y="625.5">«jar»</text></g></g><g transform="translate(2,10) scale(1,1)"><g><path fill="none" stroke="none"/><text fill="#000000" stroke="none" font-family="Arial" font-size="13px" font-style="normal" font-weight="bold" text-decoration="none" x="106.5" y="640.5">tweet-scraper V1.0-SNAPSHOT</text></g></g><g transform="translate(2,10) scale(1,1)"><rect fill="#C0C0C0" stroke="none" x="385" y="183" width="273" height="44" opacity="0.2"/></g><g transform="translate(2,10) scale(1,1)"><rect fill="#ffffff" stroke="none" x="378" y="176" width="273" height="44"/></g><g transform="translate(2,10) scale(1,1)"><path fill="none" stroke="#000000" d="M 378 176 L 651 176 L 651 220 L 378 220 L 378 176 Z Z" stroke-miterlimit="10"/></g><g transform="translate(2,10) scale(1,1)"><rect fill="#ffffff" stroke="none" x="368" y="183" width="20" height="10"/></g><g transform="translate(2,10) scale(1,1)"><path fill="none" stroke="#000000" d="M 368 183 L 388 183 L 388 193 L 368 193 L 368 183 Z Z" stroke-miterlimit="10"/></g><g transform="translate(2,10) scale(1,1)"><rect fill="#ffffff" stroke="none" x="368" y="203" width="20" height="10"/></g><g transform="translate(2,10) scale(1,1)"><path fill="none" stroke="#000000" d="M 368 203 L 388 203 L 388 213 L 368 213 L 368 203 Z Z" stroke-miterlimit="10"/></g><g transform="translate(2,10) scale(1,1)"><g><path fill="none" stroke="none"/><text fill="#000000" stroke="none" font-family="Arial" font-size="13px" font-style="normal" font-weight="bold" text-decoration="none" x="397.5" y="195.5">Spring Boot Start Web V1.5.10.RELEASE</text></g></g><g transform="translate(2,10) scale(1,1)"><rect fill="#C0C0C0" stroke="none" x="225" y="503" width="182" height="44" opacity="0.2"/></g><g transform="translate(2,10) scale(1,1)"><rect fill="#ffffff" stroke="none" x="218" y="496" width="182" height="44"/></g><g transform="translate(2,10) scale(1,1)"><path fill="none" stroke="#000000" d="M 218 496 L 400 496 L 400 540 L 218 540 L 218 496 Z Z" stroke-miterlimit="10"/></g><g transform="translate(2,10) scale(1,1)"><rect fill="#ffffff" stroke="none" x="208" y="503" width="20" height="10"/></g><g transform="translate(2,10) scale(1,1)"><path fill="none" stroke="#000000" d="M 208 503 L 228 503 L 228 513 L 208 513 L 208 503 Z Z" stroke-miterlimit="10"/></g><g transform="translate(2,10) scale(1,1)"><rect fill="#ffffff" stroke="none" x="208" y="523" width="20" height="10"/></g><g transform="translate(2,10) scale(1,1)"><path fill="none" stroke="#000000" d="M 208 523 L 228 523 L 228 533 L 208 533 L 208 523 Z Z" stroke-miterlimit="10"/></g><g transform="translate(2,10) scale(1,1)"><g><path fill="none" stroke="none"/><text fill="#000000" stroke="none" font-family="Arial" font-size="13px" font-style="normal" font-weight="normal" text-decoration="none" x="300" y="513.5">«jar»</text></g></g><g transform="translate(2,10) scale(1,1)"><g><path fill="none" stroke="none"/><text fill="#000000" stroke="none" font-family="Arial" font-size="13px" font-style="normal" font-weight="bold" text-decoration="none" x="237" y="528.5">mysql-java-driver v8.0.9-rc</text></g></g><g transform="translate(2,10) scale(1,1)"><rect fill="#C0C0C0" stroke="none" x="41" y="503" width="154" height="44" opacity="0.2"/></g><g transform="translate(2,10) scale(1,1)"><rect fill="#ffffff" stroke="none" x="34" y="496" width="154" height="44"/></g><g transform="translate(2,10) scale(1,1)"><path fill="none" stroke="#000000" d="M 34 496 L 188 496 L 188 540 L 34 540 L 34 496 Z Z" stroke-miterlimit="10"/></g><g transform="translate(2,10) scale(1,1)"><rect fill="#ffffff" stroke="none" x="24" y="503" width="20" height="10"/></g><g transform="translate(2,10) scale(1,1)"><path fill="none" stroke="#000000" d="M 24 503 L 44 503 L 44 513 L 24 513 L 24 503 Z Z" stroke-miterlimit="10"/></g><g transform="translate(2,10) scale(1,1)"><rect fill="#ffffff" stroke="none" x="24" y="523" width="20" height="10"/></g><g transform="translate(2,10) scale(1,1)"><path fill="none" stroke="#000000" d="M 24 523 L 44 523 L 44 533 L 24 533 L 24 523 Z Z" stroke-miterlimit="10"/></g><g transform="translate(2,10) scale(1,1)"><g><path fill="none" stroke="none"/><text fill="#000000" stroke="none" font-family="Arial" font-size="13px" font-style="normal" font-weight="normal" text-decoration="none" x="102" y="513.5">«jar»</text></g></g><g transform="translate(2,10) scale(1,1)"><g><path fill="none" stroke="none"/><text fill="#000000" stroke="none" font-family="Arial" font-size="13px" font-style="normal" font-weight="bold" text-decoration="none" x="51.5" y="528.5">twitter4j-stream v4.0.6</text></g></g><g transform="translate(2,10) scale(1,1)"><rect fill="#C0C0C0" stroke="none" x="89" y="143" width="115.5703125" height="44" opacity="0.2"/></g><g transform="translate(2,10) scale(1,1)"><rect fill="#ffffff" stroke="none" x="82" y="136" width="115.5703125" height="44"/></g><g transform="translate(2,10) scale(1,1)"><path fill="none" stroke="#000000" d="M 82 136 L 197.5703125 136 L 197.5703125 180 L 82 180 L 82 136 Z Z" stroke-miterlimit="10"/></g><g transform="translate(2,10) scale(1,1)"><rect fill="#ffffff" stroke="none" x="72" y="143" width="20" height="10"/></g><g transform="translate(2,10) scale(1,1)"><path fill="none" stroke="#000000" d="M 72 143 L 92 143 L 92 153 L 72 153 L 72 143 Z Z" stroke-miterlimit="10"/></g><g transform="translate(2,10) scale(1,1)"><rect fill="#ffffff" stroke="none" x="72" y="163" width="20" height="10"/></g><g transform="translate(2,10) scale(1,1)"><path fill="none" stroke="#000000" d="M 72 163 L 92 163 L 92 173 L 72 173 L 72 163 Z Z" stroke-miterlimit="10"/></g><g transform="translate(2,10) scale(1,1)"><g><path fill="none" stroke="none"/><text fill="#000000" stroke="none" font-family="Arial" font-size="13px" font-style="normal" font-weight="normal" text-decoration="none" x="111.28515625" y="153.5">«database»</text></g></g><g transform="translate(2,10) scale(1,1)"><g><path fill="none" stroke="none"/><text fill="#000000" stroke="none" font-family="Arial" font-size="13px" font-style="normal" font-weight="bold" text-decoration="none" x="116.28515625" y="168.5">Mysql DB</text></g></g><g transform="translate(2,10) scale(1,1)"><rect fill="#C0C0C0" stroke="none" x="577" y="679" width="262" height="44" opacity="0.2"/></g><g transform="translate(2,10) scale(1,1)"><rect fill="#ffffff" stroke="none" x="570" y="672" width="262" height="44"/></g><g transform="translate(2,10) scale(1,1)"><path fill="none" stroke="#000000" d="M 570 672 L 832 672 L 832 716 L 570 716 L 570 672 Z Z" stroke-miterlimit="10"/></g><g transform="translate(2,10) scale(1,1)"><rect fill="#ffffff" stroke="none" x="560" y="679" width="20" height="10"/></g><g transform="translate(2,10) scale(1,1)"><path fill="none" stroke="#000000" d="M 560 679 L 580 679 L 580 689 L 560 689 L 560 679 Z Z" stroke-miterlimit="10"/></g><g transform="translate(2,10) scale(1,1)"><rect fill="#ffffff" stroke="none" x="560" y="699" width="20" height="10"/></g><g transform="translate(2,10) scale(1,1)"><path fill="none" stroke="#000000" d="M 560 699 L 580 699 L 580 709 L 560 709 L 560 699 Z Z" stroke-miterlimit="10"/></g><g transform="translate(2,10) scale(1,1)"><g><path fill="none" stroke="none"/><text fill="#000000" stroke="none" font-family="Arial" font-size="13px" font-style="normal" font-weight="normal" text-decoration="none" x="692" y="689.5">«jar»</text></g></g><g transform="translate(2,10) scale(1,1)"><g><path fill="none" stroke="none"/><text fill="#000000" stroke="none" font-family="Arial" font-size="13px" font-style="normal" font-weight="bold" text-decoration="none" x="589" y="704.5">authentication-service V1.0-SNAPSHOT</text></g></g><g transform="translate(2,10) scale(1,1)"><path fill="none" stroke="#000000" d="M 241 151 L 327 154" stroke-miterlimit="10"/></g><g transform="translate(2,10) scale(1,1)"><g><path fill="none" stroke="none"/><text fill="#000000" stroke="none" font-family="Arial" font-size="13px" font-style="normal" font-weight="normal" text-decoration="none" x="221.5" y="143.5">+JDBC connect:3306</text></g></g><g transform="translate(2,10) scale(1,1)"><path fill="none" stroke="#000000" d="M 687 337 L 692 367" stroke-miterlimit="10"/></g><g transform="translate(2,10) scale(1,1)"><g><path fill="none" stroke="none"/><text fill="#000000" stroke="none" font-family="Arial" font-size="13px" font-style="normal" font-weight="normal" text-decoration="none" x="671.860595703125" y="355.5">+http:8083</text></g></g><g transform="translate(2,10) scale(1,1)"><path fill="none" stroke="#000000" d="M 175 367 L 145 237" stroke-miterlimit="10"/></g><g transform="translate(2,10) scale(1,1)"><g><path fill="none" stroke="none"/><text fill="#000000" stroke="none" font-family="Arial" font-size="13px" font-style="normal" font-weight="normal" text-decoration="none" x="80.5" y="311.5">+JDBC connect: 3306</text></g></g><g transform="translate(2,10) scale(1,1)"><rect fill="#C0C0C0" stroke="none" x="409" y="111" width="182" height="44" opacity="0.2"/></g><g transform="translate(2,10) scale(1,1)"><rect fill="#ffffff" stroke="none" x="402" y="104" width="182" height="44"/></g><g transform="translate(2,10) scale(1,1)"><path fill="none" stroke="#000000" d="M 402 104 L 584 104 L 584 148 L 402 148 L 402 104 Z Z" stroke-miterlimit="10"/></g><g transform="translate(2,10) scale(1,1)"><rect fill="#ffffff" stroke="none" x="392" y="111" width="20" height="10"/></g><g transform="translate(2,10) scale(1,1)"><path fill="none" stroke="#000000" d="M 392 111 L 412 111 L 412 121 L 392 121 L 392 111 Z Z" stroke-miterlimit="10"/></g><g transform="translate(2,10) scale(1,1)"><rect fill="#ffffff" stroke="none" x="392" y="131" width="20" height="10"/></g><g transform="translate(2,10) scale(1,1)"><path fill="none" stroke="#000000" d="M 392 131 L 412 131 L 412 141 L 392 141 L 392 131 Z Z" stroke-miterlimit="10"/></g><g transform="translate(2,10) scale(1,1)"><g><path fill="none" stroke="none"/><text fill="#000000" stroke="none" font-family="Arial" font-size="13px" font-style="normal" font-weight="normal" text-decoration="none" x="484" y="121.5">«jar»</text></g></g><g transform="translate(2,10) scale(1,1)"><g><path fill="none" stroke="none"/><text fill="#000000" stroke="none" font-family="Arial" font-size="13px" font-style="normal" font-weight="bold" text-decoration="none" x="421" y="136.5">mysql-java-driver v8.0.9-rc</text></g></g><g transform="translate(2,10) scale(1,1)"><path fill="none" stroke="#000000" d="M 172 607 L 123 541" stroke-miterlimit="10" stroke-dasharray="3"/></g><g transform="translate(2,10) scale(1,1)"><path fill="none" stroke="#000000" d="M 132.43783521574122 546.6504217931509 L 123 541 L 125.67810571427054 551.6690088472731" stroke-miterlimit="10"/></g><g transform="translate(2,10) scale(1,1)"><g><path fill="none" stroke="none"/><text fill="#000000" stroke="none" font-family="Arial" font-size="13px" font-style="normal" font-weight="normal" text-decoration="none" x="119.5361328125" y="588.5">+use</text></g></g><g transform="translate(2,10) scale(1,1)"><path fill="none" stroke="#000000" d="M 213 607 L 280 541" stroke-miterlimit="10" stroke-dasharray="3"/></g><g transform="translate(2,10) scale(1,1)"><path fill="none" stroke="#000000" d="M 275.7141922964179 551.130737995226 L 280 541 L 269.805962775087 545.1329898447841" stroke-miterlimit="10"/></g><g transform="translate(2,10) scale(1,1)"><g><path fill="none" stroke="none"/><text fill="#000000" stroke="none" font-family="Arial" font-size="13px" font-style="normal" font-weight="normal" text-decoration="none" x="220.5361328125" y="569.5">+use</text></g></g><g transform="translate(2,10) scale(1,1)"><path fill="none" stroke="#000000" d="M 727 121 L 585 124" stroke-miterlimit="10" stroke-dasharray="3"/></g><g transform="translate(2,10) scale(1,1)"><path fill="none" stroke="#000000" d="M 595.0714939792829 119.57676486886933 L 585 124 L 595.2493212454355 127.99392213342536" stroke-miterlimit="10"/></g><g transform="translate(2,10) scale(1,1)"><g><path fill="none" stroke="none"/><text fill="#000000" stroke="none" font-family="Arial" font-size="13px" font-style="normal" font-weight="normal" text-decoration="none" x="641.5361328125" y="142.5">+use</text></g></g><g transform="translate(2,10) scale(1,1)"><path fill="none" stroke="#000000" d="M 742 141 L 603 175" stroke-miterlimit="10" stroke-dasharray="3"/></g><g transform="translate(2,10) scale(1,1)"><path fill="none" stroke="#000000" d="M 611.8714682745384 168.49638172600373 L 603 175 L 613.8718279597989 176.67432279221592" stroke-miterlimit="10"/></g><g transform="translate(2,10) scale(1,1)"><g><path fill="none" stroke="none"/><text fill="#000000" stroke="none" font-family="Arial" font-size="13px" font-style="normal" font-weight="normal" text-decoration="none" x="660.5361328125" y="178.5">+use</text></g></g><g transform="translate(2,10) scale(1,1)"><path fill="none" stroke="#000000" d="M 839 141 L 855 247" stroke-miterlimit="10" stroke-dasharray="3"/></g><g transform="translate(2,10) scale(1,1)"><path fill="none" stroke="#000000" d="M 849.3208261036851 237.57943824098504 L 855 247 L 857.6455607287643 236.32287452399194" stroke-miterlimit="10"/></g><g transform="translate(2,10) scale(1,1)"><g><path fill="none" stroke="none"/><text fill="#000000" stroke="none" font-family="Arial" font-size="13px" font-style="normal" font-weight="normal" text-decoration="none" x="846.5361328125" y="197.5">+use</text></g></g><g transform="translate(2,10) scale(1,1)"><rect fill="#C0C0C0" stroke="none" x="577" y="591" width="285" height="44" opacity="0.2"/></g><g transform="translate(2,10) scale(1,1)"><rect fill="#ffffff" stroke="none" x="570" y="584" width="285" height="44"/></g><g transform="translate(2,10) scale(1,1)"><path fill="none" stroke="#000000" d="M 570 584 L 855 584 L 855 628 L 570 628 L 570 584 Z Z" stroke-miterlimit="10"/></g><g transform="translate(2,10) scale(1,1)"><rect fill="#ffffff" stroke="none" x="560" y="591" width="20" height="10"/></g><g transform="translate(2,10) scale(1,1)"><path fill="none" stroke="#000000" d="M 560 591 L 580 591 L 580 601 L 560 601 L 560 591 Z Z" stroke-miterlimit="10"/></g><g transform="translate(2,10) scale(1,1)"><rect fill="#ffffff" stroke="none" x="560" y="611" width="20" height="10"/></g><g transform="translate(2,10) scale(1,1)"><path fill="none" stroke="#000000" d="M 560 611 L 580 611 L 580 621 L 560 621 L 560 611 Z Z" stroke-miterlimit="10"/></g><g transform="translate(2,10) scale(1,1)"><g><path fill="none" stroke="none"/><text fill="#000000" stroke="none" font-family="Arial" font-size="13px" font-style="normal" font-weight="normal" text-decoration="none" x="703.5" y="601.5">«jar»</text></g></g><g transform="translate(2,10) scale(1,1)"><g><path fill="none" stroke="none"/><text fill="#000000" stroke="none" font-family="Arial" font-size="13px" font-style="normal" font-weight="bold" text-decoration="none" x="590" y="616.5">Spring Boot Starter Web V1.5.10.RELEASE</text></g></g><g transform="translate(2,10) scale(1,1)"><path fill="none" stroke="#000000" d="M 699 671 L 704 629" stroke-miterlimit="10" stroke-dasharray="3"/></g><g transform="translate(2,10) scale(1,1)"><path fill="none" stroke="#000000" d="M 706.9786426088731 639.5890362266169 L 704 629 L 698.6186390653944 638.5937977095361" stroke-miterlimit="10"/></g><g transform="translate(2,10) scale(1,1)"><g><path fill="none" stroke="none"/><text fill="#000000" stroke="none" font-family="Arial" font-size="13px" font-style="normal" font-weight="normal" text-decoration="none" x="671.5361328125" y="653.5">+use</text></g></g><g transform="translate(2,10) scale(1,1)"><rect fill="#C0C0C0" stroke="none" x="537" y="255" width="234" height="44" opacity="0.2"/></g><g transform="translate(2,10) scale(1,1)"><rect fill="#ffffff" stroke="none" x="530" y="248" width="234" height="44"/></g><g transform="translate(2,10) scale(1,1)"><path fill="none" stroke="#000000" d="M 530 248 L 764 248 L 764 292 L 530 292 L 530 248 Z Z" stroke-miterlimit="10"/></g><g transform="translate(2,10) scale(1,1)"><rect fill="#ffffff" stroke="none" x="520" y="255" width="20" height="10"/></g><g transform="translate(2,10) scale(1,1)"><path fill="none" stroke="#000000" d="M 520 255 L 540 255 L 540 265 L 520 265 L 520 255 Z Z" stroke-miterlimit="10"/></g><g transform="translate(2,10) scale(1,1)"><rect fill="#ffffff" stroke="none" x="520" y="275" width="20" height="10"/></g><g transform="translate(2,10) scale(1,1)"><path fill="none" stroke="#000000" d="M 520 275 L 540 275 L 540 285 L 520 285 L 520 275 Z Z" stroke-miterlimit="10"/></g><g transform="translate(2,10) scale(1,1)"><g><path fill="none" stroke="none"/><text fill="#000000" stroke="none" font-family="Arial" font-size="13px" font-style="normal" font-weight="normal" text-decoration="none" x="638" y="265.5">«jar»</text></g></g><g transform="translate(2,10) scale(1,1)"><g><path fill="none" stroke="none"/><text fill="#000000" stroke="none" font-family="Arial" font-size="13px" font-style="normal" font-weight="bold" text-decoration="none" x="547.5" y="280.5">Tweet Common V0.0.1-SNAPSHOT</text></g></g><g transform="translate(2,10) scale(1,1)"><path fill="none" stroke="#000000" d="M 807 141 L 671 247" stroke-miterlimit="10" stroke-dasharray="3"/></g><g transform="translate(2,10) scale(1,1)"><path fill="none" stroke="#000000" d="M 676.427805773579 237.43240236609518 L 671 247 L 681.6033514360597 244.0727251028628" stroke-miterlimit="10"/></g><g transform="translate(2,10) scale(1,1)"><g><path fill="none" stroke="none"/><text fill="#000000" stroke="none" font-family="Arial" font-size="13px" font-style="normal" font-weight="normal" text-decoration="none" x="733.5361328125" y="211.5">+use</text></g></g><g transform="translate(2,10) scale(1,1)"><rect fill="#C0C0C0" stroke="none" x="65" y="727" width="234" height="44" opacity="0.2"/></g><g transform="translate(2,10) scale(1,1)"><rect fill="#ffffff" stroke="none" x="58" y="720" width="234" height="44"/></g><g transform="translate(2,10) scale(1,1)"><path fill="none" stroke="#000000" d="M 58 720 L 292 720 L 292 764 L 58 764 L 58 720 Z Z" stroke-miterlimit="10"/></g><g transform="translate(2,10) scale(1,1)"><rect fill="#ffffff" stroke="none" x="48" y="727" width="20" height="10"/></g><g transform="translate(2,10) scale(1,1)"><path fill="none" stroke="#000000" d="M 48 727 L 68 727 L 68 737 L 48 737 L 48 727 Z Z" stroke-miterlimit="10"/></g><g transform="translate(2,10) scale(1,1)"><rect fill="#ffffff" stroke="none" x="48" y="747" width="20" height="10"/></g><g transform="translate(2,10) scale(1,1)"><path fill="none" stroke="#000000" d="M 48 747 L 68 747 L 68 757 L 48 757 L 48 747 Z Z" stroke-miterlimit="10"/></g><g transform="translate(2,10) scale(1,1)"><g><path fill="none" stroke="none"/><text fill="#000000" stroke="none" font-family="Arial" font-size="13px" font-style="normal" font-weight="normal" text-decoration="none" x="166" y="737.5">«jar»</text></g></g><g transform="translate(2,10) scale(1,1)"><g><path fill="none" stroke="none"/><text fill="#000000" stroke="none" font-family="Arial" font-size="13px" font-style="normal" font-weight="bold" text-decoration="none" x="75.5" y="752.5">Tweet Common V0.0.1-SNAPSHOT</text></g></g><g transform="translate(2,10) scale(1,1)"><path fill="none" stroke="#000000" d="M 185 653 L 174 719" stroke-miterlimit="10" stroke-dasharray="3"/></g><g transform="translate(2,10) scale(1,1)"><path fill="none" stroke="#000000" d="M 171.51849071810935 708.2835588144249 L 174 719 L 179.82297619170473 709.6676397266908" stroke-miterlimit="10"/></g><g transform="translate(2,10) scale(1,1)"><g><path fill="none" stroke="none"/><text fill="#000000" stroke="none" font-family="Arial" font-size="13px" font-style="normal" font-weight="normal" text-decoration="none" x="178.5361328125" y="694.5">+use</text></g></g><g transform="translate(2,10) scale(1,1)"><path fill="none" stroke="#000000" d="M 704 455 L 699 413" stroke-miterlimit="10"/></g><g transform="translate(2,10) scale(1,1)"><g><path fill="none" stroke="none"/><text fill="#000000" stroke="none" font-family="Arial" font-size="13px" font-style="normal" font-weight="normal" text-decoration="none" x="654.860595703125" y="441.5">+http:8080</text></g></g></g></svg>