<svg version="1.1" xmlns="http://www.w3.org/2000/svg" xmlns:xlink="http://www.w3.org/1999/xlink" width="496.2001953125" height="376"><defs/><g><g transform="translate(10,-38) scale(1,1)"><rect fill="#C0C0C0" stroke="none" x="103" y="55" width="247" height="328" opacity="0.2"/></g><g transform="translate(10,-38) scale(1,1)"><rect fill="#ffffff" stroke="none" x="96" y="48" width="247" height="328"/></g><g transform="translate(10,-38) scale(1,1)"><path fill="none" stroke="#000000" d="M 96 48 L 343 48 L 343 376 L 96 376 L 96 48 Z Z" stroke-miterlimit="10"/></g><g transform="translate(10,-38) scale(1,1)"><g><path fill="none" stroke="none"/><text fill="#000000" stroke="none" font-family="Arial" font-size="13px" font-style="normal" font-weight="bold" text-decoration="none" x="198" y="67.5">system</text></g></g><g transform="translate(10,-38) scale(1,1)"><path fill="#ffffff" stroke="none" d="M 38.82072727272727 113.68 C 38.82072727272727 108.886167936 42.706569597672726 105 47.5 105 C 52.293430402327274 105 56.17927272727273 108.886167936 56.17927272727273 113.68 C 56.17927272727273 118.473832064 52.293430402327274 122.36 47.5 122.36 C 42.706569597672726 122.36 38.82072727272727 118.473832064 38.82072727272727 113.68 Z"/></g><g transform="translate(10,-38) scale(1,1)"><path fill="none" stroke="#000000" d="M 38.82072727272727 113.68 C 38.82072727272727 108.886167936 42.706569597672726 105 47.5 105 C 52.293430402327274 105 56.17927272727273 108.886167936 56.17927272727273 113.68 C 56.17927272727273 118.473832064 52.293430402327274 122.36 47.5 122.36 C 42.706569597672726 122.36 38.82072727272727 118.473832064 38.82072727272727 113.68 Z" stroke-miterlimit="10"/></g><g transform="translate(10,-38) scale(1,1)"><path fill="none" stroke="#000000" d="M 47.5 122.36 L 47.5 139.64" stroke-miterlimit="10"/></g><g transform="translate(10,-38) scale(1,1)"><path fill="none" stroke="#000000" d="M 38.31018181818182 128.84 L 56.68981818181818 128.84" stroke-miterlimit="10"/></g><g transform="translate(10,-38) scale(1,1)"><path fill="none" stroke="#000000" d="M 47.5 139.64 L 34.736363636363635 157" stroke-miterlimit="10"/></g><g transform="translate(10,-38) scale(1,1)"><path fill="none" stroke="#000000" d="M 47.5 139.64 L 60.263636363636365 157" stroke-miterlimit="10"/></g><g transform="translate(10,-38) scale(1,1)"><g><path fill="none" stroke="none"/><text fill="#000000" stroke="none" font-family="Arial" font-size="13px" font-style="normal" font-weight="normal" text-decoration="none" x="25" y="175.5">«Actor»</text></g></g><g transform="translate(10,-38) scale(1,1)"><g><path fill="none" stroke="none"/><text fill="#000000" stroke="none" font-family="Arial" font-size="13px" font-style="normal" font-weight="bold" text-decoration="none" x="26" y="190.5">Macron</text></g></g><g transform="translate(10,-38) scale(1,1)"><path fill="#C0C0C0" stroke="none" d="M 151 128 C 151 118.6111584 189.055792 111 236 111 C 282.944208 111 321 118.6111584 321 128 C 321 137.3888416 282.944208 145 236 145 C 189.055792 145 151 137.3888416 151 128 Z" opacity="0.2"/></g><g transform="translate(10,-38) scale(1,1)"><path fill="#ffffff" stroke="none" d="M 144 121 C 144 111.6111584 182.055792 104 229 104 C 275.944208 104 314 111.6111584 314 121 C 314 130.3888416 275.944208 138 229 138 C 182.055792 138 144 130.3888416 144 121 Z"/></g><g transform="translate(10,-38) scale(1,1)"><path fill="none" stroke="#000000" d="M 144 121 C 144 111.6111584 182.055792 104 229 104 C 275.944208 104 314 111.6111584 314 121 C 314 130.3888416 275.944208 138 229 138 C 182.055792 138 144 130.3888416 144 121 Z" stroke-miterlimit="10"/></g><g transform="translate(10,-38) scale(1,1)"><g><path fill="none" stroke="none"/><text fill="#000000" stroke="none" font-family="Arial" font-size="13px" font-style="normal" font-weight="bold" text-decoration="none" x="181.5" y="128">consulter tweets</text></g></g><g transform="translate(10,-38) scale(1,1)"><path fill="none" stroke="#000000" d="M 96 142 L 143 135" stroke-miterlimit="10"/></g><g transform="translate(10,-38) scale(1,1)"><path fill="#C0C0C0" stroke="none" d="M 151 216 C 151 206.6111584 182.1162064 199 220.5 199 C 258.8837936 199 290 206.6111584 290 216 C 290 225.3888416 258.8837936 233 220.5 233 C 182.1162064 233 151 225.3888416 151 216 Z" opacity="0.2"/></g><g transform="translate(10,-38) scale(1,1)"><path fill="#ffffff" stroke="none" d="M 144 209 C 144 199.6111584 175.1162064 192 213.5 192 C 251.8837936 192 283 199.6111584 283 209 C 283 218.3888416 251.8837936 226 213.5 226 C 175.1162064 226 144 218.3888416 144 209 Z"/></g><g transform="translate(10,-38) scale(1,1)"><path fill="none" stroke="#000000" d="M 144 209 C 144 199.6111584 175.1162064 192 213.5 192 C 251.8837936 192 283 199.6111584 283 209 C 283 218.3888416 251.8837936 226 213.5 226 C 175.1162064 226 144 218.3888416 144 209 Z" stroke-miterlimit="10"/></g><g transform="translate(10,-38) scale(1,1)"><g><path fill="none" stroke="none"/><text fill="#000000" stroke="none" font-family="Arial" font-size="13px" font-style="normal" font-weight="bold" text-decoration="none" x="176" y="216">S'authentifier</text></g></g><g transform="translate(10,-38) scale(1,1)"><path fill="none" stroke="#000000" d="M 226 139 L 216 191" stroke-miterlimit="10" stroke-dasharray="3"/></g><g transform="translate(10,-38) scale(1,1)"><path fill="none" stroke="#000000" d="M 213.78542108428877 180.22523131449742 L 216 191 L 222.05296823446318 181.81514422799248" stroke-miterlimit="10"/></g><g transform="translate(10,-38) scale(1,1)"><g><path fill="none" stroke="none"/><text fill="#000000" stroke="none" font-family="Arial" font-size="13px" font-style="normal" font-weight="normal" text-decoration="none" x="222.678466796875" y="176.5">«include»</text></g></g><g transform="translate(10,-38) scale(1,1)"><path fill="#C0C0C0" stroke="none" d="M 103 291 C 103 279.954304 164.11312479999998 271 239.5 271 C 314.8868752 271 376 279.954304 376 291 C 376 302.045696 314.8868752 311 239.5 311 C 164.11312479999998 311 103 302.045696 103 291 Z" opacity="0.2"/></g><g transform="translate(10,-38) scale(1,1)"><path fill="#ffffff" stroke="none" d="M 96 284 C 96 272.954304 157.11312479999998 264 232.5 264 C 307.8868752 264 369 272.954304 369 284 C 369 295.045696 307.8868752 304 232.5 304 C 157.11312479999998 304 96 295.045696 96 284 Z"/></g><g transform="translate(10,-38) scale(1,1)"><path fill="none" stroke="#000000" d="M 96 284 C 96 272.954304 157.11312479999998 264 232.5 264 C 307.8868752 264 369 272.954304 369 284 C 369 295.045696 307.8868752 304 232.5 304 C 157.11312479999998 304 96 295.045696 96 284 Z" stroke-miterlimit="10"/></g><g transform="translate(10,-38) scale(1,1)"><g><path fill="none" stroke="none"/><text fill="#000000" stroke="none" font-family="Arial" font-size="13px" font-style="normal" font-weight="bold" text-decoration="none" x="155" y="291">Récupérer tweet sur twitter</text></g></g><g transform="translate(10,-38) scale(1,1)"><path fill="#ffffff" stroke="none" d="M 417.42082492897725 321.68 C 417.42082492897725 316.886167936 421.30666725392274 313 426.10009765625 313 C 430.89352805857726 313 434.77937038352275 316.886167936 434.77937038352275 321.68 C 434.77937038352275 326.473832064 430.89352805857726 330.36 426.10009765625 330.36 C 421.30666725392274 330.36 417.42082492897725 326.473832064 417.42082492897725 321.68 Z"/></g><g transform="translate(10,-38) scale(1,1)"><path fill="none" stroke="#000000" d="M 417.42082492897725 321.68 C 417.42082492897725 316.886167936 421.30666725392274 313 426.10009765625 313 C 430.89352805857726 313 434.77937038352275 316.886167936 434.77937038352275 321.68 C 434.77937038352275 326.473832064 430.89352805857726 330.36 426.10009765625 330.36 C 421.30666725392274 330.36 417.42082492897725 326.473832064 417.42082492897725 321.68 Z" stroke-miterlimit="10"/></g><g transform="translate(10,-38) scale(1,1)"><path fill="none" stroke="#000000" d="M 426.10009765625 330.36 L 426.10009765625 347.64" stroke-miterlimit="10"/></g><g transform="translate(10,-38) scale(1,1)"><path fill="none" stroke="#000000" d="M 416.91027947443183 336.84 L 435.28991583806817 336.84" stroke-miterlimit="10"/></g><g transform="translate(10,-38) scale(1,1)"><path fill="none" stroke="#000000" d="M 426.10009765625 347.64 L 413.33646129261365 365" stroke-miterlimit="10"/></g><g transform="translate(10,-38) scale(1,1)"><path fill="none" stroke="#000000" d="M 426.10009765625 347.64 L 438.86373401988635 365" stroke-miterlimit="10"/></g><g transform="translate(10,-38) scale(1,1)"><g><path fill="none" stroke="none"/><text fill="#000000" stroke="none" font-family="Arial" font-size="13px" font-style="normal" font-weight="normal" text-decoration="none" x="397.60009765625" y="383.5">«system»</text></g></g><g transform="translate(10,-38) scale(1,1)"><g><path fill="none" stroke="none"/><text fill="#000000" stroke="none" font-family="Arial" font-size="13px" font-style="normal" font-weight="bold" text-decoration="none" x="387.10009765625" y="398.5">tweet scraper</text></g></g><g transform="translate(10,-38) scale(1,1)"><path fill="none" stroke="#000000" d="M 287 305 L 375 339" stroke-miterlimit="10"/></g><g transform="translate(10,-38) scale(1,1)"><path fill="#ffffff" stroke="none" d="M 420.61564914772725 185.68 C 420.61564914772725 180.886167936 424.50149147267274 177 429.294921875 177 C 434.08835227732726 177 437.97419460227275 180.886167936 437.97419460227275 185.68 C 437.97419460227275 190.47383206400002 434.08835227732726 194.36 429.294921875 194.36 C 424.50149147267274 194.36 420.61564914772725 190.47383206400002 420.61564914772725 185.68 Z"/></g><g transform="translate(10,-38) scale(1,1)"><path fill="none" stroke="#000000" d="M 420.61564914772725 185.68 C 420.61564914772725 180.886167936 424.50149147267274 177 429.294921875 177 C 434.08835227732726 177 437.97419460227275 180.886167936 437.97419460227275 185.68 C 437.97419460227275 190.47383206400002 434.08835227732726 194.36 429.294921875 194.36 C 424.50149147267274 194.36 420.61564914772725 190.47383206400002 420.61564914772725 185.68 Z" stroke-miterlimit="10"/></g><g transform="translate(10,-38) scale(1,1)"><path fill="none" stroke="#000000" d="M 429.294921875 194.36 L 429.294921875 211.64" stroke-miterlimit="10"/></g><g transform="translate(10,-38) scale(1,1)"><path fill="none" stroke="#000000" d="M 420.10510369318183 200.84 L 438.48474005681817 200.84" stroke-miterlimit="10"/></g><g transform="translate(10,-38) scale(1,1)"><path fill="none" stroke="#000000" d="M 429.294921875 211.64 L 416.53128551136365 229" stroke-miterlimit="10"/></g><g transform="translate(10,-38) scale(1,1)"><path fill="none" stroke="#000000" d="M 429.294921875 211.64 L 442.05855823863635 229" stroke-miterlimit="10"/></g><g transform="translate(10,-38) scale(1,1)"><g><path fill="none" stroke="none"/><text fill="#000000" stroke="none" font-family="Arial" font-size="13px" font-style="normal" font-weight="normal" text-decoration="none" x="400.794921875" y="247.5">«system»</text></g></g><g transform="translate(10,-38) scale(1,1)"><g><path fill="none" stroke="none"/><text fill="#000000" stroke="none" font-family="Arial" font-size="13px" font-style="normal" font-weight="bold" text-decoration="none" x="393.794921875" y="262.5">auth service</text></g></g><g transform="translate(10,-38) scale(1,1)"><path fill="none" stroke="#000000" d="M 284 213 L 383 219" stroke-miterlimit="10"/></g><g transform="translate(10,-38) scale(1,1)"><path fill="#ffffff" stroke="none" d="M 400.11638156960225 89.68 C 400.11638156960225 84.886167936 404.00222389454774 81 408.795654296875 81 C 413.58908469920226 81 417.47492702414775 84.886167936 417.47492702414775 89.68 C 417.47492702414775 94.473832064 413.58908469920226 98.36 408.795654296875 98.36 C 404.00222389454774 98.36 400.11638156960225 94.473832064 400.11638156960225 89.68 Z"/></g><g transform="translate(10,-38) scale(1,1)"><path fill="none" stroke="#000000" d="M 400.11638156960225 89.68 C 400.11638156960225 84.886167936 404.00222389454774 81 408.795654296875 81 C 413.58908469920226 81 417.47492702414775 84.886167936 417.47492702414775 89.68 C 417.47492702414775 94.473832064 413.58908469920226 98.36 408.795654296875 98.36 C 404.00222389454774 98.36 400.11638156960225 94.473832064 400.11638156960225 89.68 Z" stroke-miterlimit="10"/></g><g transform="translate(10,-38) scale(1,1)"><path fill="none" stroke="#000000" d="M 408.795654296875 98.36 L 408.795654296875 115.64" stroke-miterlimit="10"/></g><g transform="translate(10,-38) scale(1,1)"><path fill="none" stroke="#000000" d="M 399.60583611505683 104.84 L 417.98547247869317 104.84" stroke-miterlimit="10"/></g><g transform="translate(10,-38) scale(1,1)"><path fill="none" stroke="#000000" d="M 408.795654296875 115.64 L 396.03201793323865 133" stroke-miterlimit="10"/></g><g transform="translate(10,-38) scale(1,1)"><path fill="none" stroke="#000000" d="M 408.795654296875 115.64 L 421.55929066051135 133" stroke-miterlimit="10"/></g><g transform="translate(10,-38) scale(1,1)"><g><path fill="none" stroke="none"/><text fill="#000000" stroke="none" font-family="Arial" font-size="13px" font-style="normal" font-weight="normal" text-decoration="none" x="380.295654296875" y="151.5">«system»</text></g></g><g transform="translate(10,-38) scale(1,1)"><g><path fill="none" stroke="none"/><text fill="#000000" stroke="none" font-family="Arial" font-size="13px" font-style="normal" font-weight="bold" text-decoration="none" x="370.295654296875" y="166.5">tweet service</text></g></g><g transform="translate(10,-38) scale(1,1)"><path fill="none" stroke="#000000" d="M 315 123 L 359 125" stroke-miterlimit="10"/></g></g></svg>